<?xml version="1.0" encoding="UTF-8"?>
<!DOCTYPE svg PUBLIC "-//W3C//DTD SVG 1.1//EN" "http://www.w3.org/Graphics/SVG/1.1/DTD/svg11.dtd">
<svg xmlns="http://www.w3.org/2000/svg" version="1.1" width="939px" height="941px" style="shape-rendering:geometricPrecision; text-rendering:geometricPrecision; image-rendering:optimizeQuality; fill-rule:evenodd; clip-rule:evenodd" xmlns:xlink="http://www.w3.org/1999/xlink">
<g><path style="opacity:0.977" fill="#070708" d="M 459.5,-0.5 C 468.833,-0.5 478.167,-0.5 487.5,-0.5C 525.14,4.06307 555.307,21.3964 578,51.5C 581.793,58.4202 584.46,65.7535 586,73.5C 589.675,90.3731 592.508,107.373 594.5,124.5C 594.257,135.554 591.423,145.888 586,155.5C 577.71,166.126 569.043,176.459 560,186.5C 553.617,195.649 550.451,205.816 550.5,217C 551.838,232.201 553.505,247.368 555.5,262.5C 554.714,266.156 554.547,269.823 555,273.5C 565.523,263.497 576.69,254.33 588.5,246C 599.009,237.837 605.843,227.337 609,214.5C 610.478,199.808 612.145,185.142 614,170.5C 616.362,162.774 620.029,155.774 625,149.5C 643.482,132.173 663.982,117.673 686.5,106C 737.747,95.749 780.247,110.582 814,150.5C 825.15,167.593 833.816,185.927 840,205.5C 844.043,222.319 841.377,237.986 832,252.5C 823.161,266.842 814.827,281.508 807,296.5C 796.352,312.248 781.852,322.748 763.5,328C 751.274,330.112 739.274,333.112 727.5,337C 708.572,346.925 693.072,360.758 681,378.5C 676.801,383.034 672.301,387.201 667.5,391C 685.221,391.889 702.888,393.389 720.5,395.5C 732.775,395.908 743.775,392.408 753.5,385C 762.833,377 772.167,369 781.5,361C 795.151,352.981 809.817,350.314 825.5,353C 843.034,355.773 860.368,359.44 877.5,364C 891.43,370.6 902.93,380.1 912,392.5C 926.398,411.953 935.231,433.62 938.5,457.5C 938.5,467.833 938.5,478.167 938.5,488.5C 934.54,505.213 929.04,521.547 922,537.5C 915.719,552.904 904.886,563.737 889.5,570C 868.251,576.312 846.917,582.312 825.5,588C 807.171,590.446 790.171,586.779 774.5,577C 755.948,561.259 734.448,553.426 710,553.5C 695.542,555.203 681.042,556.37 666.5,557C 670.967,560.465 675.133,564.298 679,568.5C 688.833,583.667 701.333,596.167 716.5,606C 723.431,609.977 730.764,612.977 738.5,615C 758.679,616.72 776.679,623.72 792.5,636C 798.759,642.255 804.259,649.088 809,656.5C 818.348,673.865 827.681,691.198 837,708.5C 840.303,717.903 841.303,727.569 840,737.5C 833.557,762.216 822.557,784.549 807,804.5C 776.544,836.21 739.378,849.71 695.5,845C 688.87,843.457 682.537,841.123 676.5,838C 662.66,828.914 648.993,819.581 635.5,810C 623.499,800.493 615.666,788.327 612,773.5C 610.903,760.474 609.57,747.474 608,734.5C 605.444,721.555 598.944,711.055 588.5,703C 576.021,694.001 564.187,684.168 553,673.5C 552,671.833 551,670.167 550,668.5C 549.159,686.558 547.659,704.558 545.5,722.5C 544.992,733.472 547.825,743.472 554,752.5C 562.429,763.018 571.095,773.352 580,783.5C 588.022,797.114 590.689,811.781 588,827.5C 585.405,845.07 581.739,862.403 577,879.5C 571.446,892.051 563.279,902.551 552.5,911C 532.166,927.164 509.166,936.997 483.5,940.5C 473.167,940.5 462.833,940.5 452.5,940.5C 429.764,935.636 408.43,927.136 388.5,915C 379.119,907.072 372.619,897.239 369,885.5C 364.203,867.442 359.203,849.442 354,831.5C 350.496,813.524 353.163,796.524 362,780.5C 369.086,770.668 375.419,760.334 381,749.5C 385.558,737.424 387.725,724.924 387.5,712C 386.684,700.485 385.684,688.985 384.5,677.5C 384.907,673.476 385.074,669.476 385,665.5C 382.191,669.61 379.025,673.443 375.5,677C 365.5,684.667 355.5,692.333 345.5,700C 336.785,707.718 330.952,717.218 328,728.5C 326.241,741.453 324.908,754.453 324,767.5C 320.417,783.831 311.917,796.997 298.5,807C 285.44,816.392 272.106,825.392 258.5,834C 240.244,842.656 221.244,844.656 201.5,840C 163.367,832.538 134.201,812.372 114,779.5C 103.903,761.874 97.4028,743.041 94.5,723C 94.8938,716.242 96.3938,709.742 99,703.5C 108.731,685.038 118.731,666.705 129,648.5C 138.234,634.261 150.734,624.094 166.5,618C 177.366,614.8 188.366,612.133 199.5,610C 217.601,604.235 232.768,594.069 245,579.5C 249.667,573.5 254.333,567.5 259,561.5C 262.251,557.578 266.084,554.412 270.5,552C 255.974,551.514 241.474,550.681 227,549.5C 209.523,548.595 193.356,552.762 178.5,562C 162.696,575.565 144.362,583.065 123.5,584.5C 114.665,583.966 105.999,582.466 97.5,580C 80.8333,575 64.1667,570 47.5,565C 31.8774,558.043 21.044,546.543 15,530.5C 8.09208,515.278 2.92541,499.611 -0.5,483.5C -0.5,473.5 -0.5,463.5 -0.5,453.5C 4.36857,417.256 21.0352,387.756 49.5,365C 55.2643,361.784 61.2643,359.117 67.5,357C 83.7403,353.485 100.074,350.485 116.5,348C 133.2,345.924 148.2,349.924 161.5,360C 169.204,367.373 177.204,374.373 185.5,381C 194.881,387.682 205.381,391.182 217,391.5C 229.212,390.369 241.379,388.869 253.5,387C 260.205,386.505 266.872,386.505 273.5,387C 265.606,380.105 258.773,372.272 253,363.5C 241.144,349.495 226.644,339.328 209.5,333C 196.269,330.554 183.269,327.221 170.5,323C 155.541,316.042 143.707,305.542 135,291.5C 124.476,273.12 114.476,254.453 105,235.5C 100.625,218.909 102.291,202.909 110,187.5C 119.285,160.735 135.452,139.235 158.5,123C 189.185,102.108 222.518,96.1084 258.5,105C 279.993,116.493 299.826,130.326 318,146.5C 324.447,154.061 328.781,162.728 331,172.5C 332.282,185.505 333.616,198.505 335,211.5C 337.505,223.01 343.005,232.844 351.5,241C 361.215,249.05 371.215,256.716 381.5,264C 384.704,266.869 387.537,270.035 390,273.5C 390.281,269.838 390.115,266.171 389.5,262.5C 392.581,244.222 393.081,225.889 391,207.5C 389.448,197.844 386.115,188.844 381,180.5C 373.041,169.583 366.374,157.917 361,145.5C 356.261,129.42 356.595,113.42 362,97.5C 366.739,82.6175 371.072,67.6175 375,52.5C 381.807,33.6925 394.641,20.8592 413.5,14C 428.419,7.41342 443.753,2.58009 459.5,-0.5 Z M 399.5,291.5 C 403.865,295.874 408.531,300.041 413.5,304C 409.129,305.401 404.796,306.901 400.5,308.5C 400.671,302.868 400.337,297.201 399.5,291.5 Z M 543.5,294.5 C 544.809,298.351 544.809,302.351 543.5,306.5C 540.344,304.837 537.011,303.67 533.5,303C 537.025,300.302 540.358,297.469 543.5,294.5 Z M 463.5,326.5 C 466.377,328.846 466.044,329.679 462.5,329C 463.252,328.329 463.586,327.496 463.5,326.5 Z M 527.5,326.5 C 529.898,326.259 531.898,326.926 533.5,328.5C 531.102,328.741 529.102,328.074 527.5,326.5 Z M 399.5,330.5 C 403.588,330.218 404.088,330.885 401,332.5C 399.97,332.164 399.47,331.497 399.5,330.5 Z M 422.5,341.5 C 424.975,341.747 424.975,342.413 422.5,343.5C 421.537,343.03 421.537,342.363 422.5,341.5 Z M 388.5,357.5 C 391.607,357.351 394.607,357.851 397.5,359C 394.265,360.809 390.932,360.809 387.5,359C 388.056,358.617 388.389,358.117 388.5,357.5 Z M 462.5,362.5 C 466.059,362.408 469.392,363.241 472.5,365C 474.879,368.256 476.879,371.756 478.5,375.5C 469.154,376.668 459.82,377.502 450.5,378C 452.734,374.364 454.568,370.531 456,366.5C 458.013,364.752 460.18,363.418 462.5,362.5 Z M 545.5,426.5 C 541.195,423.677 536.862,420.844 532.5,418C 539.901,412.67 542.401,405.503 540,396.5C 537.189,385.335 530.022,379.169 518.5,378C 523.833,374 528.5,369.333 532.5,364C 537.28,362.97 541.613,363.97 545.5,367C 549.963,372.114 554.296,377.281 558.5,382.5C 547.247,385.996 541.58,393.663 541.5,405.5C 542.324,412.617 543.657,419.617 545.5,426.5 Z M 423.5,377.5 C 425.01,378.836 426.677,380.003 428.5,381C 425.479,381.673 422.479,382.007 419.5,382C 421.041,380.629 422.375,379.129 423.5,377.5 Z M 579.5,379.5 C 595.187,390.898 612.853,397.064 632.5,398C 637.833,398.333 643.167,398.667 648.5,399C 642.622,403.21 637.789,408.377 634,414.5C 629,423.167 624,431.833 619,440.5C 614.107,451.633 611.773,463.3 612,475.5C 609.274,478.286 607.607,481.619 607,485.5C 606.667,490.167 606.333,494.833 606,499.5C 604.846,500.743 603.512,501.743 602,502.5C 601.262,500.047 600.762,497.547 600.5,495C 602.471,475.546 603.804,456.046 604.5,436.5C 604.175,426.12 603.341,415.786 602,405.5C 598.219,393.22 590.052,385.554 577.5,382.5C 578.193,381.482 578.859,380.482 579.5,379.5 Z M 294.5,397.5 C 302.613,397.515 310.613,397.015 318.5,396C 313.194,400.431 308.694,405.597 305,411.5C 301.668,406.673 298.168,402.007 294.5,397.5 Z M 377.5,437.5 C 379.785,425.524 386.785,420.857 398.5,423.5C 401.749,423.229 404.916,422.563 408,421.5C 420.727,423.647 433.227,426.814 445.5,431C 448.747,434.476 450.413,438.643 450.5,443.5C 449.649,451.936 448.149,460.269 446,468.5C 443.568,452.439 435.734,439.939 422.5,431C 406.088,423.987 391.088,426.154 377.5,437.5 Z M 500.5,424.5 C 501.873,424.343 503.207,424.51 504.5,425C 501.639,427.894 499.139,431.061 497,434.5C 492.083,444.253 487.75,454.253 484,464.5C 483.072,453.76 483.405,443.093 485,432.5C 485.785,430.714 486.951,429.214 488.5,428C 492.623,426.808 496.623,425.641 500.5,424.5 Z M 331.5,438.5 C 332.5,438.5 333.5,438.5 334.5,438.5C 331.578,450.109 328.745,461.776 326,473.5C 326.338,462.872 324.838,452.539 321.5,442.5C 324.786,440.855 328.119,439.522 331.5,438.5 Z M 405.5,481.5 C 409.589,498.067 409.422,514.734 405,531.5C 402.93,514.804 403.096,498.138 405.5,481.5 Z M 523.5,488.5 C 526.724,497.805 528.224,507.472 528,517.5C 526.155,519.35 524.155,519.683 522,518.5C 521.282,508.42 521.782,498.42 523.5,488.5 Z M 322.5,493.5 C 323.331,504.993 323.831,516.659 324,528.5C 324.385,535.242 325.218,541.909 326.5,548.5C 326.167,548.833 325.833,549.167 325.5,549.5C 312.955,546.349 300.289,544.849 287.5,545C 294.707,539.46 300.874,532.96 306,525.5C 309.085,520.328 312.419,515.328 316,510.5C 319.257,505.227 321.423,499.561 322.5,493.5 Z M 649.5,549.5 C 643.824,549.666 638.157,549.499 632.5,549C 634.523,545.27 636.356,541.437 638,537.5C 641.364,542.029 645.197,546.029 649.5,549.5 Z M 542.5,649.5 C 533.501,640.816 523.501,633.316 512.5,627C 515.128,618.578 518.961,610.745 524,603.5C 531.651,596.023 539.817,595.523 548.5,602C 549.376,603.586 550.376,605.086 551.5,606.5C 547.073,620.542 544.073,634.875 542.5,649.5 Z M 428.5,622.5 C 432.003,618.81 434.503,614.477 436,609.5C 436.332,612.506 437.166,615.34 438.5,618C 435.15,619.61 431.816,621.11 428.5,622.5 Z M 392.5,650.5 C 392.619,642.067 392.119,633.734 391,625.5C 399.85,629.333 409.017,630.5 418.5,629C 408.744,634.929 400.078,642.096 392.5,650.5 Z"/></g>
<g><path style="opacity:1" fill="#fcfcfc" d="M 455.5,7.5 C 498.333,3.38427 534.833,16.3843 565,46.5C 572.345,55.1934 577.012,65.1934 579,76.5C 581.462,89.1445 583.796,101.811 586,114.5C 588.565,135.141 582.232,152.475 567,166.5C 564.688,160.309 565.021,154.309 568,148.5C 569.159,138.977 565.993,131.144 558.5,125C 554.747,123.011 550.747,122.178 546.5,122.5C 546.5,124.833 546.5,127.167 546.5,129.5C 555.272,129.773 559.939,134.273 560.5,143C 558.984,150.739 558.151,158.572 558,166.5C 555.146,168.598 552.479,170.931 550,173.5C 550.662,168.395 550.495,163.228 549.5,158C 553.454,147.899 550.454,140.566 540.5,136C 536.755,134.955 532.921,134.455 529,134.5C 522.011,134.832 515.178,135.998 508.5,138C 502.972,138.712 497.472,138.546 492,137.5C 483.93,138.229 480.264,142.562 481,150.5C 482.059,153.618 483.392,156.618 485,159.5C 484.265,169.426 488.765,175.259 498.5,177C 504.803,177.942 511.137,178.609 517.5,179C 520.993,179.942 524.326,181.275 527.5,183C 533.272,184.29 538.439,183.123 543,179.5C 541.305,184.937 539.971,190.604 539,196.5C 534.657,200.008 529.824,202.674 524.5,204.5C 525.747,206.323 526.414,208.323 526.5,210.5C 527.833,210.5 529.167,210.5 530.5,210.5C 531.305,216.615 533.639,222.115 537.5,227C 534.973,226.089 532.306,225.089 529.5,224C 520.89,222.261 515.723,225.761 514,234.5C 507.327,229.639 501.827,230.639 497.5,237.5C 493.772,232.306 488.772,230.473 482.5,232C 478.897,233.771 476.564,236.604 475.5,240.5C 472.241,232.87 466.574,230.037 458.5,232C 455.689,233.644 453.356,235.81 451.5,238.5C 446.743,229.419 440.243,228.086 432,234.5C 430.23,225.863 425.064,222.696 416.5,225C 412.722,227.112 409.222,229.612 406,232.5C 407.996,228.187 410.329,223.854 413,219.5C 414.562,215.986 415.395,212.319 415.5,208.5C 417.5,208.833 419.5,209.167 421.5,209.5C 421.292,207.08 421.626,204.747 422.5,202.5C 415.959,201.269 410.125,198.603 405,194.5C 403.898,189.895 403.065,185.229 402.5,180.5C 402.833,180.167 403.167,179.833 403.5,179.5C 407.392,182.326 411.725,183.159 416.5,182C 421.372,180.897 426.038,179.23 430.5,177C 440.348,177.297 449.681,175.297 458.5,171C 462.397,167.369 464.23,162.869 464,157.5C 468.342,150.99 468.508,144.49 464.5,138C 462.5,137.333 460.5,136.667 458.5,136C 448.377,136.043 438.377,135.043 428.5,133C 415.159,129.084 404.992,132.917 398,144.5C 399.132,154.479 399.799,164.479 400,174.5C 397.938,172.099 396.271,169.433 395,166.5C 394.667,160.167 394.333,153.833 394,147.5C 392.556,144.945 391.389,142.279 390.5,139.5C 390.76,137.813 391.427,136.313 392.5,135C 395.45,132.361 398.783,130.527 402.5,129.5C 403.493,124.046 401.493,122.046 396.5,123.5C 389.351,126.469 385.017,131.635 383.5,139C 384.672,143.854 386.006,148.688 387.5,153.5C 386.585,157.144 386.419,160.81 387,164.5C 388.94,171.047 391.94,177.047 396,182.5C 394.584,192.667 398.251,200.333 407,205.5C 408.183,212.81 406.183,219.143 401,224.5C 400.594,206.948 395.927,190.614 387,175.5C 377.997,164.497 371.33,152.164 367,138.5C 365.649,130.203 365.316,121.87 366,113.5C 372.126,92.5373 378.126,71.5373 384,50.5C 387.622,41.5437 393.455,34.377 401.5,29C 418.69,19.5532 436.69,12.3865 455.5,7.5 Z"/></g>
<g><path style="opacity:1" fill="#fdfdfd" d="M 222.5,329.5 C 222.167,329.5 221.833,329.5 221.5,329.5C 211.368,324.862 200.701,322.028 189.5,321C 168.322,316.48 152.155,304.98 141,286.5C 134.093,272.348 126.427,258.681 118,245.5C 109.158,229.337 108.158,212.67 115,195.5C 127.479,156.69 152.646,129.857 190.5,115C 212.687,107.235 235.02,106.568 257.5,113C 277.668,123.837 296.168,137.004 313,152.5C 322.128,163.554 325.795,176.221 324,190.5C 318.489,187.318 314.822,182.651 313,176.5C 304.175,166.921 294.008,165.088 282.5,171C 279.086,173.957 279.752,176.457 284.5,178.5C 296.313,171.827 304.813,174.827 310,187.5C 312.349,190.017 314.849,192.35 317.5,194.5C 318.661,198.795 318.828,203.129 318,207.5C 314.951,202.784 310.951,199.118 306,196.5C 301.84,186.66 294.673,183.826 284.5,188C 276.161,192.674 270.328,199.507 267,208.5C 262.333,214.5 257,219.833 251,224.5C 246.808,231.164 247.975,236.664 254.5,241C 260.73,242.447 266.064,245.447 270.5,250C 272.833,250.667 275.167,250.667 277.5,250C 286.333,245.499 294.333,239.832 301.5,233C 310.526,231.472 316.193,226.306 318.5,217.5C 320.405,221.572 322.905,225.238 326,228.5C 326.667,231.167 326.667,233.833 326,236.5C 324.957,240.275 323.957,243.942 323,247.5C 324.753,248.627 326.587,249.627 328.5,250.5C 329.167,249.5 329.833,248.5 330.5,247.5C 331.685,248.853 333.019,250.02 334.5,251C 338.811,252.461 343.145,253.794 347.5,255C 334.387,257.067 330.72,263.9 336.5,275.5C 328.181,277.276 325.181,282.109 327.5,290C 314.21,288.989 309.543,294.655 313.5,307C 300.068,304.148 293.568,309.648 294,323.5C 289.09,320.415 284.756,321.082 281,325.5C 279.4,328.334 278.234,331.334 277.5,334.5C 269.719,329.35 263.886,331.016 260,339.5C 259.519,343.531 258.853,347.531 258,351.5C 256.76,346.553 255.427,341.553 254,336.5C 252.414,333.081 250.248,330.081 247.5,327.5C 249.167,326.333 250.833,325.167 252.5,324C 251.044,322.255 249.711,320.422 248.5,318.5C 242.179,323.11 235.179,324.943 227.5,324C 224.797,320.962 221.797,318.295 218.5,316C 223.371,315.136 227.204,312.636 230,308.5C 233.246,299.671 238.246,292.005 245,285.5C 250.052,279.346 252.052,272.346 251,264.5C 247.274,259.714 244.607,254.381 243,248.5C 239.1,243.467 234.267,242.3 228.5,245C 219.23,253.961 209.23,261.961 198.5,269C 189.985,276.181 187.485,285.014 191,295.5C 193.906,298.037 197.073,300.204 200.5,302C 204.533,306.368 208.866,310.368 213.5,314C 209.186,314.455 205.186,313.455 201.5,311C 198.167,307.667 194.833,304.333 191.5,301C 187.768,299.539 184.268,297.706 181,295.5C 180.061,290.491 180.561,285.658 182.5,281C 180.977,279.146 179.144,277.646 177,276.5C 172.928,282.579 171.595,289.246 173,296.5C 173.883,299.102 175.383,301.269 177.5,303C 181.37,304.287 185.036,305.953 188.5,308C 194.305,317.072 202.639,321.738 213.5,322C 217.275,323.611 220.275,326.111 222.5,329.5 Z"/></g>
<g><path style="opacity:1" fill="#fdfdfd" d="M 700.5,109.5 C 751.293,106.976 790.127,126.976 817,169.5C 825.845,185.68 831.678,202.846 834.5,221C 833.616,229.651 831.116,237.818 827,245.5C 817.827,260.509 809.16,275.842 801,291.5C 791.677,305.153 779.177,314.653 763.5,320C 749.473,322.352 735.806,325.686 722.5,330C 724.167,328.333 725.833,326.667 727.5,325C 733.867,323.126 740.201,321.126 746.5,319C 750.15,315.419 753.816,311.752 757.5,308C 769.749,305.317 774.249,297.817 771,285.5C 769.634,277.663 766.467,276.663 761.5,282.5C 763.485,287.311 763.985,292.311 763,297.5C 754.941,300.275 748.441,305.108 743.5,312C 739.739,314.229 735.739,315.229 731.5,315C 736.467,311.034 741.134,306.701 745.5,302C 754.738,297.976 757.571,291.142 754,281.5C 747.405,271.571 738.905,263.738 728.5,258C 724.2,254.702 720.2,251.035 716.5,247C 712.096,243.757 707.762,243.757 703.5,247C 700.398,251.037 698.232,255.537 697,260.5C 692.178,265.371 691.178,271.037 694,277.5C 696.54,283.906 700.54,289.24 706,293.5C 708.854,301.773 713.354,308.94 719.5,315C 721.5,315.833 723.5,316.667 725.5,317.5C 722.362,318.805 720.029,320.971 718.5,324C 714.434,326.958 710.101,327.292 705.5,325C 702.088,323.545 698.921,321.712 696,319.5C 691.31,323.126 691.476,326.293 696.5,329C 690.552,335.666 687.218,343.5 686.5,352.5C 686.382,345.979 684.382,340.145 680.5,335C 675.889,332.884 671.389,333.051 667,335.5C 665.819,331.637 663.986,328.137 661.5,325C 657.906,323.259 654.239,323.092 650.5,324.5C 650.663,311.321 644.329,305.654 631.5,307.5C 634.21,295.963 629.543,290.296 617.5,290.5C 618.853,287.755 618.686,285.088 617,282.5C 614.43,280.131 611.596,278.131 608.5,276.5C 612.996,270.321 612.33,264.821 606.5,260C 603.417,258.861 600.417,257.528 597.5,256C 603.182,254.5 608.515,252.333 613.5,249.5C 616.505,251.871 619.171,251.371 621.5,248C 618.63,242.455 617.463,236.622 618,230.5C 619.29,228.208 620.957,226.208 623,224.5C 624,222.167 625,219.833 626,217.5C 626.551,223.103 629.051,227.603 633.5,231C 637.581,232.471 641.581,234.138 645.5,236C 651.451,241.973 658.118,246.973 665.5,251C 671.378,252.684 676.045,251.018 679.5,246C 685.709,244.998 690.876,242.164 695,237.5C 696.075,233.142 695.408,229.142 693,225.5C 683.623,218.742 676.623,210.076 672,199.5C 664.938,190.041 655.771,186.541 644.5,189C 641.386,192.06 638.886,195.56 637,199.5C 631.994,201.48 628.327,204.814 626,209.5C 625.333,205.167 625.333,200.833 626,196.5C 631.839,192.992 635.839,187.992 638,181.5C 644.929,175.289 652.096,174.956 659.5,180.5C 664.657,178.315 665.323,175.482 661.5,172C 646.243,165.109 635.076,169.275 628,184.5C 625.629,187.206 622.963,189.539 620,191.5C 618.666,180.835 620.666,170.835 626,161.5C 630.423,155.072 635.59,149.239 641.5,144C 654.167,135.333 666.833,126.667 679.5,118C 686.187,114.057 693.187,111.224 700.5,109.5 Z"/></g>
<g><path style="opacity:1" fill="#080809" d="M 469.5,160.5 C 472.97,159.875 475.804,160.875 478,163.5C 483.268,172.371 488.268,181.371 493,190.5C 495.493,198.029 492.993,202.529 485.5,204C 481.409,205.227 477.909,204.394 475,201.5C 475,197.5 475,193.5 475,189.5C 472.856,184.705 470.19,184.372 467,188.5C 466.501,192.016 466.667,195.516 467.5,199C 467.646,201.034 466.98,202.701 465.5,204C 452.669,206.718 447.836,201.884 451,189.5C 456.692,179.43 462.859,169.763 469.5,160.5 Z"/></g>
<g><path style="opacity:1" fill="#d9d9d9" d="M 556.5,176.5 C 557.239,176.369 557.906,176.536 558.5,177C 554.95,180.883 551.783,185.049 549,189.5C 548.365,187.365 548.699,185.365 550,183.5C 552.372,181.297 554.539,178.963 556.5,176.5 Z"/></g>
<g><path style="opacity:1" fill="#ececec" d="M 543.5,209.5 C 542.833,213.167 542.167,216.833 541.5,220.5C 540.186,217.511 538.853,214.511 537.5,211.5C 538.407,207.353 540.574,204.02 544,201.5C 543.745,204.082 543.578,206.748 543.5,209.5 Z"/></g>
<g><path style="opacity:1" fill="#c2c2c2" d="M 325.5,205.5 C 326.222,205.918 326.722,206.584 327,207.5C 327.311,212.011 327.977,216.344 329,220.5C 327.615,219.449 326.615,218.116 326,216.5C 325.501,212.848 325.335,209.182 325.5,205.5 Z"/></g>
<g><path style="opacity:1" fill="#cecece" d="M 617.5,207.5 C 618.643,210.976 618.81,214.642 618,218.5C 617.581,219.672 616.915,220.672 616,221.5C 616.164,216.836 616.664,212.169 617.5,207.5 Z"/></g>
<g><path style="opacity:1" fill="#636364" d="M 543.5,209.5 C 543.824,213.555 543.491,217.555 542.5,221.5C 541.893,221.376 541.56,221.043 541.5,220.5C 542.167,216.833 542.833,213.167 543.5,209.5 Z"/></g>
<g><path style="opacity:1" fill="#f2f2f2" d="M 523.5,230.5 C 528.407,230.551 531.907,232.884 534,237.5C 534.89,244.914 534.557,252.247 533,259.5C 530.113,252.058 526.446,245.058 522,238.5C 521.282,235.593 521.782,232.926 523.5,230.5 Z"/></g>
<g><path style="opacity:1" fill="#f1f1f1" d="M 419.5,231.5 C 423.487,231.652 424.987,233.652 424,237.5C 418.152,244.53 413.318,252.197 409.5,260.5C 406.293,248.581 409.626,238.914 419.5,231.5 Z"/></g>
<g><path style="opacity:1" fill="#e4e4e4" d="M 334.5,233.5 C 338.324,237.824 342.324,241.991 346.5,246C 337.6,246.599 333.6,242.432 334.5,233.5 Z"/></g>
<g><path style="opacity:1" fill="#e8e8e8" d="M 609.5,233.5 C 611.663,242.654 607.997,247.154 598.5,247C 603.137,243.206 606.803,238.706 609.5,233.5 Z"/></g>
<g><path style="opacity:1" fill="#f3f3f3" d="M 440.5,237.5 C 442.99,238.108 444.324,239.775 444.5,242.5C 443.496,248.844 440.662,254.177 436,258.5C 435.751,255.823 434.751,253.49 433,251.5C 432.333,249.5 432.333,247.5 433,245.5C 435.028,242.308 437.528,239.641 440.5,237.5 Z"/></g>
<g><path style="opacity:1" fill="#f5f5f5" d="M 399.5,238.5 C 401.293,238.884 402.293,240.05 402.5,242C 398.742,252.923 400.409,262.923 407.5,272C 409.345,273.128 411.345,273.628 413.5,273.5C 414.611,279.565 417.611,284.398 422.5,288C 428.492,289.394 433.159,287.561 436.5,282.5C 443.465,293.758 451.299,294.425 460,284.5C 465.056,294.502 471.39,295.169 479,286.5C 484.842,293.123 490.676,293.123 496.5,286.5C 502.927,292.055 508.76,291.388 514,284.5C 517.229,292.906 522.729,294.74 530.5,290C 533.433,287.736 535.6,284.902 537,281.5C 537.121,273.933 538.454,266.6 541,259.5C 541.5,252.508 541.666,245.508 541.5,238.5C 542.833,238.5 544.167,238.5 545.5,238.5C 547.172,249.43 547.672,260.43 547,271.5C 543.927,284.908 536.094,294.408 523.5,300C 510.046,298.39 500.38,303.556 494.5,315.5C 488.096,305.596 479.429,298.429 468.5,294C 463.597,293.063 458.93,293.73 454.5,296C 448.114,299.93 442.947,305.097 439,311.5C 435.578,310.376 433.078,308.209 431.5,305C 420.111,300.384 410.611,293.217 403,283.5C 399.191,276.155 397.358,268.322 397.5,260C 398.364,252.849 399.031,245.682 399.5,238.5 Z"/></g>
<g><path style="opacity:1" fill="#f3f3f3" d="M 461.5,238.5 C 464.808,237.974 466.974,239.307 468,242.5C 468.499,248.157 468.666,253.824 468.5,259.5C 465.125,259.767 461.958,260.767 459,262.5C 457.739,262.241 456.739,261.574 456,260.5C 455.911,254.45 456.578,248.45 458,242.5C 459.376,241.295 460.542,239.962 461.5,238.5 Z"/></g>
<g><path style="opacity:1" fill="#f4f4f4" d="M 485.5,238.5 C 490.116,239.678 492.95,242.678 494,247.5C 496.83,259.854 492.664,263.521 481.5,258.5C 480.395,251.337 481.728,244.67 485.5,238.5 Z"/></g>
<g><path style="opacity:1" fill="#eeeeee" d="M 505.5,238.5 C 514.874,242.595 516.708,248.928 511,257.5C 507.584,253.169 505.084,248.336 503.5,243C 504.414,241.594 505.08,240.094 505.5,238.5 Z"/></g>
<g><path style="opacity:1" fill="#060607" d="M 255.5,251.5 C 259.56,251.485 263.56,251.985 267.5,253C 274.034,255.423 280.701,257.423 287.5,259C 299.521,264.096 300.521,270.762 290.5,279C 286.384,279.118 282.717,277.784 279.5,275C 277.559,274.257 275.726,274.424 274,275.5C 274.265,278.82 275.931,281.487 279,283.5C 280.373,285.695 280.706,288.029 280,290.5C 270.689,300.838 263.689,299.504 259,286.5C 256.997,276.818 254.83,267.151 252.5,257.5C 252.628,255.045 253.628,253.045 255.5,251.5 Z"/></g>
<g><path style="opacity:1" fill="#060607" d="M 677.5,253.5 C 681.514,253.334 685.514,253.501 689.5,254C 691.007,255.473 691.674,257.307 691.5,259.5C 688.767,270.864 685.934,282.197 683,293.5C 679.059,299.065 674.226,299.898 668.5,296C 666.112,293.95 664.112,291.616 662.5,289C 663.101,287.395 664.101,286.062 665.5,285C 670.746,283.763 672.58,280.596 671,275.5C 669.867,273.789 668.367,273.289 666.5,274C 662.972,276.533 659.806,279.366 657,282.5C 652.119,279.793 648.953,275.793 647.5,270.5C 647.736,266.429 649.736,263.596 653.5,262C 661.533,258.945 669.533,256.111 677.5,253.5 Z"/></g>
<g><path style="opacity:1" fill="#f7f7f7" d="M 359.5,258.5 C 373.43,265.262 383.93,275.596 391,289.5C 392.8,297.132 392.8,304.799 391,312.5C 378.746,318.42 369.412,327.42 363,339.5C 357.013,351.126 353.68,363.459 353,376.5C 346.773,380.69 339.94,383.523 332.5,385C 319.342,388.24 306.008,389.573 292.5,389C 286.583,387.041 281.25,384.041 276.5,380C 270.458,373.627 264.792,366.96 259.5,360C 260.635,359.251 261.635,359.417 262.5,360.5C 268.113,372.468 277.446,377.968 290.5,377C 291.108,376.13 291.941,375.63 293,375.5C 299.255,380.014 305.755,380.514 312.5,377C 315.405,373.325 316.072,369.325 314.5,365C 327.197,368.8 333.864,363.967 334.5,350.5C 344.646,352.685 348.98,348.685 347.5,338.5C 356.921,339.08 361.254,334.746 360.5,325.5C 363.579,325.196 366.413,324.196 369,322.5C 370.589,318.969 371.755,315.302 372.5,311.5C 376.185,314.076 379.851,313.91 383.5,311C 389.718,301.479 388.218,293.313 379,286.5C 375.179,275.367 368.345,266.533 358.5,260C 359.056,259.617 359.389,259.117 359.5,258.5 Z"/></g>
<g><path style="opacity:1" fill="#f0f0f0" d="M 423.5,257.5 C 427.832,264.033 429.665,271.366 429,279.5C 426.724,282.064 424.724,281.73 423,278.5C 419.516,271.378 419.683,264.378 423.5,257.5 Z"/></g>
<g><path style="opacity:1" fill="#efefef" d="M 523.5,258.5 C 524.79,259.058 525.623,260.058 526,261.5C 527.488,266.12 528.655,270.786 529.5,275.5C 530.184,280.145 528.351,283.145 524,284.5C 523.228,284.355 522.561,284.022 522,283.5C 521.065,281.091 520.565,278.591 520.5,276C 521.309,270.123 522.309,264.29 523.5,258.5 Z"/></g>
<g><path style="opacity:1" fill="#f8f8f8" d="M 571.5,313.5 C 572.167,315.5 572.833,317.5 573.5,319.5C 575.085,324.812 578.752,327.478 584.5,327.5C 583.355,336.196 587.355,340.362 596.5,340C 595.141,346.77 597.807,351.27 604.5,353.5C 606.761,352.352 609.095,351.852 611.5,352C 610.185,365.18 615.851,369.68 628.5,365.5C 628.11,368.767 628.61,372.101 630,375.5C 630.833,377.667 632.333,379.167 634.5,380C 640.641,381.187 646.308,380.021 651.5,376.5C 653.933,379.242 656.933,380.075 660.5,379C 667.1,377.37 672.767,374.203 677.5,369.5C 666.165,387.824 649.831,394.657 628.5,390C 611.625,388.768 596.625,382.934 583.5,372.5C 583.736,363.361 580.403,355.861 573.5,350C 570.109,348.311 567.109,346.144 564.5,343.5C 572.19,332.221 570.524,322.388 559.5,314C 557.254,312.961 555.087,311.794 553,310.5C 549.55,298.851 551.884,288.518 560,279.5C 567.186,271.379 575.352,264.879 584.5,260C 584.957,260.414 585.291,260.914 585.5,261.5C 576.37,268.123 569.703,276.623 565.5,287C 557.115,293.617 555.281,301.784 560,311.5C 563.383,314.592 567.217,315.259 571.5,313.5 Z"/></g>
<g><path style="opacity:1" fill="#f3f3f3" d="M 343.5,263.5 C 346.187,263.336 348.854,263.503 351.5,264C 357.316,268.649 362.649,273.816 367.5,279.5C 363.53,279.132 359.53,277.965 355.5,276C 348.674,276.411 343.674,273.745 340.5,268C 341.315,266.357 342.315,264.857 343.5,263.5 Z"/></g>
<g><path style="opacity:1" fill="#f4f4f4" d="M 593.5,264.5 C 597.192,263.971 600.358,264.971 603,267.5C 603.682,271.18 602.182,273.68 598.5,275C 590.795,276.123 583.628,278.623 577,282.5C 577.398,280.369 578.398,278.369 580,276.5C 584.478,272.365 588.978,268.365 593.5,264.5 Z"/></g>
<g><path style="opacity:1" fill="#f6f6f6" d="M 467.5,266.5 C 469.5,266.5 471.5,266.5 473.5,266.5C 472.971,271.822 472.471,277.156 472,282.5C 471.632,283.91 470.799,284.91 469.5,285.5C 465.834,280.155 464.167,274.155 464.5,267.5C 465.791,267.737 466.791,267.404 467.5,266.5 Z"/></g>
<g><path style="opacity:1" fill="#efefef" d="M 487.5,268.5 C 488.209,269.404 489.209,269.737 490.5,269.5C 490.5,272.833 490.5,276.167 490.5,279.5C 489.14,285.464 487.306,285.798 485,280.5C 484.629,276.238 483.796,272.071 482.5,268C 482.833,267.5 483.167,267 483.5,266.5C 484.86,267.18 486.193,267.847 487.5,268.5 Z"/></g>
<g><path style="opacity:1" fill="#f4f4f4" d="M 446.5,267.5 C 448.583,268.588 450.749,269.588 453,270.5C 453.667,273.833 453.667,277.167 453,280.5C 450.778,285.228 448.111,285.561 445,281.5C 443.443,278.828 442.276,275.995 441.5,273C 443.401,271.271 445.068,269.438 446.5,267.5 Z"/></g>
<g><path style="opacity:1" fill="#ececec" d="M 502.5,268.5 C 509.029,268.272 511.196,271.272 509,277.5C 508.248,281.956 505.915,283.289 502,281.5C 501.718,277.961 501.218,274.461 500.5,271C 501.056,269.989 501.722,269.156 502.5,268.5 Z"/></g>
<g><path style="opacity:1" fill="#7a7a7b" d="M 487.5,268.5 C 488.833,268.5 490.167,268.5 491.5,268.5C 491.815,272.371 491.482,276.038 490.5,279.5C 490.5,276.167 490.5,272.833 490.5,269.5C 489.209,269.737 488.209,269.404 487.5,268.5 Z"/></g>
<g><path style="opacity:1" fill="#eeeeee" d="M 335.5,283.5 C 343.602,282.552 348.602,286.052 350.5,294C 345.058,294.522 340.058,293.189 335.5,290C 333.064,287.646 333.064,285.479 335.5,283.5 Z"/></g>
<g><path style="opacity:1" fill="#f1f1f1" d="M 602.5,284.5 C 605.206,284.575 607.873,284.908 610.5,285.5C 610.919,288.325 609.919,290.491 607.5,292C 603.366,294.448 599.033,295.281 594.5,294.5C 595.417,289.6 598.084,286.267 602.5,284.5 Z"/></g>
<g><path style="opacity:1" fill="#f1f1f1" d="M 360.5,286.5 C 365.247,288.037 369.913,289.87 374.5,292C 379.831,296.031 380.664,300.531 377,305.5C 373.439,303.945 370.439,301.612 368,298.5C 365.249,294.598 362.749,290.598 360.5,286.5 Z"/></g>
<g><path style="opacity:1" fill="#f1f1f1" d="M 581.5,287.5 C 582.552,287.351 583.552,287.517 584.5,288C 581.048,291.734 578.215,295.9 576,300.5C 573.267,304.115 569.767,305.948 565.5,306C 563.743,300.492 565.409,296.159 570.5,293C 574.507,291.663 578.173,289.83 581.5,287.5 Z"/></g>
<g><path style="opacity:1" fill="#f4f4f4" d="M 320.5,297.5 C 328.137,297.401 334.303,300.401 339,306.5C 339.667,308.167 339.667,309.833 339,311.5C 335.693,313.745 332.193,315.245 328.5,316C 325.333,311.5 322.167,307 319,302.5C 318.387,300.505 318.887,298.838 320.5,297.5 Z"/></g>
<g><path style="opacity:1" fill="#f5f5f5" d="M 617.5,298.5 C 619.527,298.338 621.527,298.505 623.5,299C 624.804,299.804 625.471,300.971 625.5,302.5C 622.994,308.341 619.327,313.341 614.5,317.5C 611.875,316.236 609.208,315.069 606.5,314C 605.212,311.534 605.212,309.034 606.5,306.5C 609.738,303.066 613.404,300.4 617.5,298.5 Z"/></g>
<g><path style="opacity:1" fill="#fbfbfb" d="M 460.5,301.5 C 466.5,301.33 471.833,303.164 476.5,307C 492.532,322.891 501.032,342.058 502,364.5C 499.202,371.648 494.036,374.148 486.5,372C 484.348,367.365 481.681,363.032 478.5,359C 469.455,353.139 460.455,353.139 451.5,359C 448.125,363.812 445.125,368.812 442.5,374C 430.077,375.565 425.244,370.065 428,357.5C 431.283,342.31 437.283,328.31 446,315.5C 450.068,309.93 454.902,305.263 460.5,301.5 Z M 463.5,326.5 C 463.586,327.496 463.252,328.329 462.5,329C 466.044,329.679 466.377,328.846 463.5,326.5 Z"/></g>
<g><path style="opacity:1" fill="#eeeeee" d="M 356.5,305.5 C 362.314,307.305 364.648,311.138 363.5,317C 362.167,317.667 360.833,317.667 359.5,317C 356.801,314.659 354.134,312.325 351.5,310C 352.761,308.038 354.428,306.538 356.5,305.5 Z"/></g>
<g><path style="opacity:1" fill="#f3f3f3" d="M 585.5,306.5 C 587.372,307.511 589.372,308.345 591.5,309C 592.022,309.561 592.355,310.228 592.5,311C 589.669,314.324 586.336,317.157 582.5,319.5C 581.914,319.291 581.414,318.957 581,318.5C 579.976,313.548 581.476,309.548 585.5,306.5 Z"/></g>
<g><path style="opacity:1" fill="#f9f9f9" d="M 511.5,308.5 C 527.18,308.891 541.847,313.058 555.5,321C 562.718,326.719 563.218,332.886 557,339.5C 556.071,343.244 556.571,346.744 558.5,350C 563.263,352.798 567.763,355.964 572,359.5C 575.442,365.257 575.275,370.757 571.5,376C 568.833,376.667 566.167,376.667 563.5,376C 559.244,369.74 554.244,364.073 548.5,359C 536.023,352.128 526.356,354.794 519.5,367C 516.661,368.92 513.661,370.587 510.5,372C 509.365,372.749 508.365,372.583 507.5,371.5C 510.338,365.465 511.171,359.132 510,352.5C 507.758,343.443 504.925,334.61 501.5,326C 501.41,318.01 504.743,312.177 511.5,308.5 Z M 527.5,326.5 C 529.898,326.259 531.898,326.926 533.5,328.5C 531.102,328.741 529.102,328.074 527.5,326.5 Z"/></g>
<g><path style="opacity:1" fill="#f9f9f9" d="M 418.5,310.5 C 425.935,309.599 429.601,312.932 429.5,320.5C 429.534,323.433 428.701,326.1 427,328.5C 422,332.5 417,336.5 412,340.5C 411.294,342.971 411.627,345.305 413,347.5C 415.333,349.167 417.667,350.833 420,352.5C 423.697,364.402 420.197,373.069 409.5,378.5C 398.634,377.092 387.8,377.425 377,379.5C 372.017,379.213 367.184,378.213 362.5,376.5C 362.021,353.624 371.021,335.457 389.5,322C 399.068,317.65 408.734,313.817 418.5,310.5 Z M 399.5,330.5 C 399.47,331.497 399.97,332.164 401,332.5C 404.088,330.885 403.588,330.218 399.5,330.5 Z M 388.5,357.5 C 388.389,358.117 388.056,358.617 387.5,359C 390.932,360.809 394.265,360.809 397.5,359C 394.607,357.851 391.607,357.351 388.5,357.5 Z"/></g>
<g><path style="opacity:1" fill="#f4f4f4" d="M 304.5,313.5 C 306.927,313.523 309.26,314.023 311.5,315C 313.963,318.465 316.796,321.631 320,324.5C 320.163,328.364 318.996,331.864 316.5,335C 315.167,335.667 313.833,335.667 312.5,335C 308.21,329.884 304.543,324.384 301.5,318.5C 302.092,316.577 303.092,314.911 304.5,313.5 Z"/></g>
<g><path style="opacity:1" fill="#f5f5f5" d="M 633.5,315.5 C 635.857,315.337 638.19,315.503 640.5,316C 641.894,316.956 642.561,318.289 642.5,320C 640.796,324.052 638.629,327.885 636,331.5C 634.434,333.993 632.434,335.993 630,337.5C 626.748,335.191 624.582,332.024 623.5,328C 626.273,323.393 629.607,319.226 633.5,315.5 Z"/></g>
<g><path style="opacity:1" fill="#575758" d="M 571.5,313.5 C 571.56,312.957 571.893,312.624 572.5,312.5C 573.474,314.743 573.808,317.076 573.5,319.5C 572.833,317.5 572.167,315.5 571.5,313.5 Z"/></g>
<g><path style="opacity:1" fill="#ececec" d="M 342.5,317.5 C 348.644,319.651 352.311,323.984 353.5,330.5C 351.345,330.628 349.345,330.128 347.5,329C 344.308,326.308 340.975,323.808 337.5,321.5C 339.201,320.165 340.868,318.832 342.5,317.5 Z"/></g>
<g><path style="opacity:0.981" fill="#0a0a0a" d="M 460.5,317.5 C 469.554,318.39 473.72,323.39 473,332.5C 472.167,334.667 470.667,336.167 468.5,337C 458.398,339.549 453.898,335.716 455,325.5C 456.273,322.403 458.107,319.736 460.5,317.5 Z M 463.5,326.5 C 463.586,327.496 463.252,328.329 462.5,329C 466.044,329.679 466.377,328.846 463.5,326.5 Z"/></g>
<g><path style="opacity:0.965" fill="#0a0a0a" d="M 522.5,317.5 C 531.554,316.946 538.721,320.279 544,327.5C 544.8,334.701 541.467,338.034 534,337.5C 525.214,337.537 519.714,333.37 517.5,325C 518.299,321.896 519.966,319.396 522.5,317.5 Z M 527.5,326.5 C 529.898,326.259 531.898,326.926 533.5,328.5C 531.102,328.741 529.102,328.074 527.5,326.5 Z"/></g>
<g><path style="opacity:1" fill="#f1f1f1" d="M 599.5,318.5 C 602.122,319.811 604.789,321.145 607.5,322.5C 603.639,325.528 599.639,328.361 595.5,331C 594.207,331.49 592.873,331.657 591.5,331.5C 591.372,329.345 591.872,327.345 593,325.5C 595.372,323.297 597.539,320.963 599.5,318.5 Z"/></g>
<g><path style="opacity:0.975" fill="#0d0d0d" d="M 399.5,322.5 C 404.969,321.71 409.469,323.377 413,327.5C 413.93,330.85 413.097,333.683 410.5,336C 403.731,340.768 397.231,340.601 391,335.5C 390.245,332.697 390.578,330.03 392,327.5C 394.479,325.686 396.979,324.019 399.5,322.5 Z M 399.5,330.5 C 399.47,331.497 399.97,332.164 401,332.5C 404.088,330.885 403.588,330.218 399.5,330.5 Z"/></g>
<g><path style="opacity:1" fill="#f4f4f4" d="M 329.5,327.5 C 333.468,331.639 337.301,335.973 341,340.5C 341.388,342.076 340.888,343.409 339.5,344.5C 334.29,342.98 329.79,340.314 326,336.5C 325.873,333.084 327.04,330.084 329.5,327.5 Z"/></g>
<g><path style="opacity:1" fill="#f0f0f0" d="M 287.5,329.5 C 289.582,329.472 291.416,330.139 293,331.5C 294.941,335.048 296.607,338.714 298,342.5C 298.808,344.579 298.641,346.579 297.5,348.5C 294.41,346.611 291.243,344.945 288,343.5C 284.932,338.887 284.765,334.221 287.5,329.5 Z"/></g>
<g><path style="opacity:1" fill="#f1f1f1" d="M 612.5,329.5 C 616.793,330.411 618.959,333.077 619,337.5C 614.443,341.362 609.276,344.028 603.5,345.5C 603.34,343.801 603.506,342.134 604,340.5C 607.073,336.939 609.906,333.272 612.5,329.5 Z"/></g>
<g><path style="opacity:1" fill="#444445" d="M 221.5,329.5 C 221.833,329.5 222.167,329.5 222.5,329.5C 227.007,331.113 231.673,331.779 236.5,331.5C 233.833,332.167 231.167,332.833 228.5,333.5C 225.968,332.404 223.635,331.071 221.5,329.5 Z"/></g>
<g><path style="opacity:1" fill="#efefef" d="M 236.5,331.5 C 240.025,331.346 242.859,332.679 245,335.5C 247.574,339.68 248.74,344.013 248.5,348.5C 242.528,342.52 235.861,337.52 228.5,333.5C 231.167,332.833 233.833,332.167 236.5,331.5 Z"/></g>
<g><path style="opacity:1" fill="#f5f5f5" d="M 654.5,330.5 C 656.124,330.36 657.29,331.027 658,332.5C 658.738,336.261 658.405,339.928 657,343.5C 654.222,346.138 651.056,348.138 647.5,349.5C 646.21,341.76 648.544,335.427 654.5,330.5 Z"/></g>
<g><path style="opacity:1" fill="#f1f1f1" d="M 703.5,332.5 C 707.804,333.131 712.137,333.631 716.5,334C 708.86,338.073 702.026,343.24 696,349.5C 695.758,342.648 698.258,336.982 703.5,332.5 Z"/></g>
<g><path style="opacity:1" fill="#f2f2f2" d="M 268.5,339.5 C 271.325,339.081 273.491,340.081 275,342.5C 275.958,351.06 277.792,359.393 280.5,367.5C 277.656,367.49 275.156,366.157 273,363.5C 269.298,358.597 267.131,353.097 266.5,347C 266.41,344.256 267.077,341.756 268.5,339.5 Z"/></g>
<g><path style="opacity:1" fill="#f2f2f2" d="M 672.5,340.5 C 674.39,340.297 675.89,340.963 677,342.5C 678.612,354.608 674.279,363.942 664,370.5C 666.303,362.095 667.969,353.429 669,344.5C 669.69,342.65 670.856,341.316 672.5,340.5 Z"/></g>
<g><path style="opacity:1" fill="#f3f3f3" d="M 316.5,344.5 C 321.486,346.153 324.819,349.486 326.5,354.5C 325.148,358.254 322.482,359.421 318.5,358C 311.224,356.614 309.557,352.781 313.5,346.5C 314.739,346.058 315.739,345.391 316.5,344.5 Z"/></g>
<g><path style="opacity:1" fill="#f5f5f5" d="M 624.5,346.5 C 626.861,346.674 629.194,347.007 631.5,347.5C 632.321,350.554 632.321,353.554 631.5,356.5C 628.374,357.931 625.207,359.264 622,360.5C 618.703,358.842 617.703,356.175 619,352.5C 621.04,350.63 622.873,348.63 624.5,346.5 Z"/></g>
<g><path style="opacity:0.975" fill="#090909" d="M 385.5,350.5 C 391.929,349.698 397.929,350.864 403.5,354C 405.923,357.379 406.09,360.879 404,364.5C 394.059,369.359 385.059,368.026 377,360.5C 376.313,358.08 376.813,355.913 378.5,354C 380.713,352.384 383.047,351.217 385.5,350.5 Z M 388.5,357.5 C 388.389,358.117 388.056,358.617 387.5,359C 390.932,360.809 394.265,360.809 397.5,359C 394.607,357.851 391.607,357.351 388.5,357.5 Z"/></g>
<g><path style="opacity:1" fill="#fcfcfc" d="M 113.5,355.5 C 134.645,352.823 152.312,359.323 166.5,375C 160.319,377.271 154.319,376.937 148.5,374C 132.617,372.6 123.617,379.767 121.5,395.5C 124.167,395.5 126.833,395.5 129.5,395.5C 129.959,386.704 134.625,381.704 143.5,380.5C 150.895,383.03 158.562,384.197 166.5,384C 169.069,386.479 171.402,389.146 173.5,392C 171.384,391.718 169.217,391.218 167,390.5C 164.045,391.374 161.045,392.041 158,392.5C 151.471,389.17 145.471,389.837 140,394.5C 137.746,398.007 135.746,401.673 134,405.5C 133.333,409.833 133.333,414.167 134,418.5C 135.909,422.315 137.242,426.315 138,430.5C 138.353,437.852 138.353,445.185 138,452.5C 139.999,460.122 144.832,462.622 152.5,460C 157.657,456.727 163.323,455.06 169.5,455C 171.286,454.215 172.786,453.049 174,451.5C 177.051,442.105 178.718,432.439 179,422.5C 182.824,417.033 184.158,411.033 183,404.5C 181.642,402.141 180.642,399.807 180,397.5C 180.903,398.701 182.069,399.535 183.5,400C 188.176,399.89 192.509,400.89 196.5,403C 199.732,407.309 202.566,411.809 205,416.5C 208.488,416.437 210.321,414.77 210.5,411.5C 212.927,411.477 215.26,410.977 217.5,410C 220.701,407.733 224.034,406.066 227.5,405C 220.563,415.213 222.563,423.046 233.5,428.5C 229.925,435.017 231.258,440.184 237.5,444C 230.818,449.487 229.818,455.82 234.5,463C 236.275,464.439 238.275,465.439 240.5,466C 232.751,469.423 229.918,475.256 232,483.5C 233.5,486.333 235.667,488.5 238.5,490C 229.451,494.819 228.117,501.319 234.5,509.5C 224.326,512.177 221.492,518.177 226,527.5C 228.045,530.423 230.212,533.257 232.5,536C 228.187,534.004 223.854,531.671 219.5,529C 215.986,527.438 212.319,526.605 208.5,526.5C 208.357,524.738 208.691,523.071 209.5,521.5C 207.187,520.727 204.854,520.06 202.5,519.5C 201.126,526.749 197.793,532.916 192.5,538C 187.761,538.451 183.095,538.785 178.5,539C 181.219,536.227 182.553,532.894 182.5,529C 181.404,522.304 179.571,515.804 177,509.5C 177.984,498.791 175.151,489.291 168.5,481C 160.768,479.218 153.268,476.718 146,473.5C 140.918,473.91 137.584,476.577 136,481.5C 135.862,494.621 134.695,507.621 132.5,520.5C 131.106,531.214 135.106,539.047 144.5,544C 154.426,542.803 164.426,542.136 174.5,542C 171.661,543.92 168.661,545.587 165.5,547C 159.833,547.333 154.167,547.667 148.5,548C 145.18,548.743 142.013,549.91 139,551.5C 134.597,548.929 131.431,545.262 129.5,540.5C 126.756,539.509 124.089,539.843 121.5,541.5C 123.858,547.021 127.191,551.855 131.5,556C 137.576,559.332 143.576,558.998 149.5,555C 161.599,557.078 172.266,554.078 181.5,546C 191.659,547.573 199.326,544.073 204.5,535.5C 212.181,533.5 218.848,535.334 224.5,541C 212.105,541.399 200.105,543.732 188.5,548C 175.905,554.935 163.572,562.269 151.5,570C 136.322,576.857 120.656,578.19 104.5,574C 86.4844,568.661 68.4844,563.328 50.5,558C 39.057,552.89 30.557,544.724 25,533.5C 17.3416,517.852 11.6749,501.518 8,484.5C 3.08294,439.558 17.5829,402.392 51.5,373C 56.5545,369.806 61.8878,367.139 67.5,365C 82.9052,361.493 98.2385,358.327 113.5,355.5 Z"/></g>
<g><path style="opacity:1" fill="#ececec" d="M 288.5,355.5 C 295.697,358.349 302.197,362.349 308,367.5C 308.723,370.125 307.723,371.792 305,372.5C 295.929,370.263 290.429,364.596 288.5,355.5 Z"/></g>
<g><path style="opacity:1" fill="#f4f4f4" d="M 653.5,357.5 C 654.239,357.369 654.906,357.536 655.5,358C 653.243,366.59 647.743,371.757 639,373.5C 636.681,372.591 636.014,370.925 637,368.5C 641.964,363.941 647.464,360.275 653.5,357.5 Z"/></g>
<g><path style="opacity:1" fill="#fcfcfc" d="M 723.5,415.5 C 724.833,416.167 726.167,416.833 727.5,417.5C 728.985,420.083 731.318,421.416 734.5,421.5C 736.982,408.306 744.648,402.64 757.5,404.5C 754.795,408.471 753.962,412.804 755,417.5C 756.333,420.833 757.667,424.167 759,427.5C 759.546,434.37 760.38,441.203 761.5,448C 762.305,457.229 767.305,461.562 776.5,461C 779.618,462.059 782.618,463.392 785.5,465C 792.303,466.856 797.136,464.689 800,458.5C 800.333,449.167 800.667,439.833 801,430.5C 805.96,420.614 805.626,410.948 800,401.5C 798.127,399.291 795.96,397.458 793.5,396C 788.523,395.257 783.69,395.757 779,397.5C 776.245,396.595 773.412,395.928 770.5,395.5C 768.307,395.326 766.473,395.993 765,397.5C 766.578,393.886 769.078,390.719 772.5,388C 776.784,388.457 781.118,388.457 785.5,388C 792.924,384.116 799.757,384.949 806,390.5C 808.006,393.536 808.84,396.869 808.5,400.5C 811.167,400.5 813.833,400.5 816.5,400.5C 815.374,386.374 807.707,379.041 793.5,378.5C 788.556,379.466 783.556,380.133 778.5,380.5C 776.167,380.167 773.833,379.833 771.5,379.5C 779.768,370.532 789.768,364.366 801.5,361C 809.833,360.333 818.167,360.333 826.5,361C 838.828,363.333 851.162,365.666 863.5,368C 877.182,370.755 888.682,377.255 898,387.5C 934.313,430.696 940.646,478.029 917,529.5C 912.809,540.412 906.309,549.578 897.5,557C 892.124,560.239 886.458,562.905 880.5,565C 864.007,569.034 847.673,573.7 831.5,579C 817.164,581.821 803.164,580.821 789.5,576C 778.666,570.419 768.332,564.086 758.5,557C 744.387,549.814 729.387,545.981 713.5,545.5C 718.907,540.456 725.24,538.289 732.5,539C 737.78,548.306 745.78,552.306 756.5,551C 761.167,553.667 765.833,556.333 770.5,559C 776.5,559.333 782.5,559.667 788.5,560C 791.872,561.606 795.372,562.772 799,563.5C 802.233,563.3 805.067,562.133 807.5,560C 811.261,555.81 814.261,551.143 816.5,546C 814.222,545.014 811.889,544.18 809.5,543.5C 808.257,546.319 806.757,548.986 805,551.5C 800.794,556.169 795.961,556.669 790.5,553C 784.833,552.667 779.167,552.333 773.5,552C 770.371,550.601 767.371,548.935 764.5,547C 774.612,546.34 784.612,546.674 794.5,548C 799.4,546.098 802.567,542.598 804,537.5C 805.058,533.42 805.558,529.253 805.5,525C 803.321,511.952 802.155,498.786 802,485.5C 800.427,480.355 796.927,478.022 791.5,478.5C 785.344,480.909 779.011,482.743 772.5,484C 766.881,488.052 763.381,493.552 762,500.5C 762.529,509.312 760.862,517.645 757,525.5C 756.333,530.5 756.333,535.5 757,540.5C 757.374,541.416 757.874,542.25 758.5,543C 753.877,542.854 749.21,542.52 744.5,542C 740.008,537.035 737.342,531.202 736.5,524.5C 734.167,524.5 731.833,524.5 729.5,524.5C 729.318,526.591 729.652,528.591 730.5,530.5C 727.553,531.321 724.553,531.821 721.5,532C 716.48,535.005 711.48,537.672 706.5,540C 710.213,535.575 712.88,530.575 714.5,525C 713.503,518.815 709.836,515.315 703.5,514.5C 709.991,506.184 708.658,499.684 699.5,495C 710.421,486.585 710.088,478.585 698.5,471C 709.439,464.372 710.105,457.039 700.5,449C 703,447.833 704.833,446 706,443.5C 706.667,439.339 706.167,435.339 704.5,431.5C 713.504,429.846 716.67,424.512 714,415.5C 713.117,412.898 711.617,410.731 709.5,409C 714.196,410.844 718.862,413.011 723.5,415.5 Z"/></g>
<g><path style="opacity:1" fill="#dedede" d="M 677.5,369.5 C 679.114,366.607 680.447,363.607 681.5,360.5C 682.675,360.281 683.675,360.614 684.5,361.5C 682.149,364.239 679.816,366.905 677.5,369.5 Z"/></g>
<g><path style="opacity:1" fill="#fcfcfc" d="M 466.5,384.5 C 480.837,384.333 495.171,384.5 509.5,385C 513.558,385.34 517.558,386.007 521.5,387C 528.697,389.531 532.364,394.698 532.5,402.5C 532.751,406.503 531.084,409.336 527.5,411C 517.248,413.384 506.915,415.384 496.5,417C 485.884,417.295 479.05,422.462 476,432.5C 474.969,437.099 474.469,441.765 474.5,446.5C 476.746,475.562 479.58,504.562 483,533.5C 484.355,555.486 484.689,577.486 484,599.5C 483.901,609.11 481.568,618.11 477,626.5C 466.506,636.651 457.173,635.651 449,623.5C 444.814,613.94 442.481,603.94 442,593.5C 440.144,560.196 442.477,527.196 449,494.5C 451.539,482.139 454.206,469.805 457,457.5C 459.874,447.039 458.874,437.039 454,427.5C 452.269,425.383 450.102,423.883 447.5,423C 436.452,419.071 425.119,416.405 413.5,415C 410.143,412.307 408.809,408.807 409.5,404.5C 409.089,399.491 410.756,395.324 414.5,392C 431.872,388.87 449.205,386.37 466.5,384.5 Z"/></g>
<g><path style="opacity:1" fill="#fbfbfb" d="M 386.5,385.5 C 393.863,385.169 401.197,385.503 408.5,386.5C 405.312,389.539 403.145,393.206 402,397.5C 401.374,403.195 401.541,408.862 402.5,414.5C 386.401,411.294 375.568,417.294 370,432.5C 360.28,457.587 356.613,483.587 359,510.5C 359.973,535.14 363.139,559.474 368.5,583.5C 368.788,593.204 364.121,597.037 354.5,595C 347.626,592.457 343.126,587.624 341,580.5C 330.601,542.188 328.934,503.521 336,464.5C 338.337,457.489 340.67,450.489 343,443.5C 345.187,435.56 342.353,430.893 334.5,429.5C 325.583,431.98 316.583,433.98 307.5,435.5C 309.561,410.934 322.894,396.767 347.5,393C 360.606,390.278 373.606,387.778 386.5,385.5 Z"/></g>
<g><path style="opacity:1" fill="#c8c8c8" d="M 175.5,382.5 C 180.067,386.559 185.067,390.059 190.5,393C 183.529,392.558 178.529,389.058 175.5,382.5 Z"/></g>
<g><path style="opacity:1" fill="#fcfcfc" d="M 559.5,390.5 C 571.859,388.343 582.359,391.677 591,400.5C 592.275,402.717 593.275,405.051 594,407.5C 596.111,436.857 595.611,466.19 592.5,495.5C 592.253,499.741 593.087,503.741 595,507.5C 603.383,512.492 609.717,510.492 614,501.5C 614.138,495.419 614.804,489.419 616,483.5C 622.824,476.414 628.824,477.081 634,485.5C 637.356,492.805 638.356,500.471 637,508.5C 631.35,539.974 617.183,566.807 594.5,589C 587.006,594.835 582.839,593.002 582,583.5C 577.677,541.903 571.677,500.57 564,459.5C 560.274,443.988 555.94,428.655 551,413.5C 550.333,408.5 550.333,403.5 551,398.5C 553.074,394.923 555.907,392.256 559.5,390.5 Z"/></g>
<g><path style="opacity:1" fill="#e5e5e5" d="M 759.5,388.5 C 760.239,388.369 760.906,388.536 761.5,389C 758.833,391.667 756.167,394.333 753.5,397C 751.833,397.667 750.167,397.667 748.5,397C 752.958,395.114 756.625,392.281 759.5,388.5 Z"/></g>
<g><path style="opacity:1" fill="#f8f8f8" d="M 249.5,394.5 C 258.552,394.193 267.552,394.693 276.5,396C 280.112,397.139 283.446,398.806 286.5,401C 292.096,406.593 296.93,412.76 301,419.5C 300.077,423.344 299.577,427.344 299.5,431.5C 299.126,441.844 304.126,445.844 314.5,443.5C 320.97,464.773 319.47,485.44 310,505.5C 302.491,517.667 293.658,528.834 283.5,539C 276.692,542.858 269.359,544.692 261.5,544.5C 253.753,544.073 246.087,543.073 238.5,541.5C 239,540.119 240,539.453 241.5,539.5C 253.561,543.851 264.061,541.517 273,532.5C 273.219,531.062 273.719,529.729 274.5,528.5C 280.627,527.187 285.127,523.854 288,518.5C 289.039,512.518 286.873,508.018 281.5,505C 284.603,503.561 287.436,501.727 290,499.5C 293.179,492.078 291.346,486.244 284.5,482C 294.373,476.573 295.039,470.073 286.5,462.5C 293.167,456.833 293.167,451.167 286.5,445.5C 290.931,438.95 290.265,432.95 284.5,427.5C 292.74,424.425 294.573,419.091 290,411.5C 284.982,405.303 278.482,402.803 270.5,404C 260.231,400.036 249.564,398.536 238.5,399.5C 238.5,398.5 238.5,397.5 238.5,396.5C 242.425,396.57 246.091,395.903 249.5,394.5 Z"/></g>
<g><path style="opacity:1" fill="#e2e2e2" d="M 201.5,398.5 C 201.735,397.903 202.235,397.57 203,397.5C 209.129,398.273 215.296,398.773 221.5,399C 214.545,405.128 207.879,404.961 201.5,398.5 Z"/></g>
<g><path style="opacity:1" fill="#f7f7f7" d="M 621.5,470.5 C 620.539,468.735 620.205,466.735 620.5,464.5C 621.502,453.663 625.002,443.663 631,434.5C 636.62,423.546 643.787,413.712 652.5,405C 655.795,402.566 659.462,400.899 663.5,400C 675.578,399.093 687.578,399.593 699.5,401.5C 699.5,402.5 699.5,403.5 699.5,404.5C 692.159,404.334 684.826,404.5 677.5,405C 673.825,405.557 670.492,406.89 667.5,409C 657.173,407.243 650.006,411.076 646,420.5C 645.332,426.358 647.832,430.358 653.5,432.5C 647.682,437.692 647.015,443.526 651.5,450C 644.878,455.794 644.878,461.627 651.5,467.5C 645.917,471.321 644.417,476.321 647,482.5C 648.925,484.213 651.092,485.547 653.5,486.5C 643.409,495.697 644.409,503.53 656.5,510C 648.045,515.52 647.378,521.854 654.5,529C 657.561,531.035 660.895,532.201 664.5,532.5C 665.081,538.59 668.414,542.423 674.5,544C 682.036,546.046 689.536,545.879 697,543.5C 698.169,544.009 699.002,544.842 699.5,546C 687.911,548.101 676.244,548.768 664.5,548C 653.694,544.193 645.694,537.193 640.5,527C 645.894,513.409 646.727,499.576 643,485.5C 639.237,475.564 632.071,470.564 621.5,470.5 Z"/></g>
<g><path style="opacity:1" fill="#e6e6e6" d="M 734.5,401.5 C 736.337,401.639 736.67,402.306 735.5,403.5C 729.765,409.933 723.765,410.1 717.5,404C 723.384,403.685 729.051,402.851 734.5,401.5 Z"/></g>
<g><path style="opacity:1" fill="#f4f4f4" d="M 236.5,407.5 C 243.863,407.169 251.197,407.503 258.5,408.5C 251.854,411.488 245.521,414.988 239.5,419C 231.422,421.579 228.922,419.079 232,411.5C 233.397,409.93 234.897,408.596 236.5,407.5 Z"/></g>
<g><path style="opacity:1" fill="#eeeeee" d="M 271.5,411.5 C 275.463,411.089 279.13,411.922 282.5,414C 283.861,415.584 284.528,417.418 284.5,419.5C 275.733,421.041 267.066,420.541 258.5,418C 262.736,415.539 267.069,413.372 271.5,411.5 Z"/></g>
<g><path style="opacity:1" fill="#f0f0f0" d="M 681.5,411.5 C 688.222,411.29 694.888,411.79 701.5,413C 705.973,414.774 707.806,417.94 707,422.5C 704.503,424.478 701.669,424.978 698.5,424C 692.412,419.289 685.745,415.622 678.5,413C 679.737,412.768 680.737,412.268 681.5,411.5 Z"/></g>
<g><path style="opacity:1" fill="#787879" d="M 723.5,415.5 C 725.288,415.215 726.955,415.548 728.5,416.5C 728.376,417.107 728.043,417.44 727.5,417.5C 726.167,416.833 724.833,416.167 723.5,415.5 Z"/></g>
<g><path style="opacity:1" fill="#f4f4f4" d="M 657.5,416.5 C 665.116,416.752 672.45,418.586 679.5,422C 671.046,425.268 662.379,426.102 653.5,424.5C 653.776,421.281 655.109,418.615 657.5,416.5 Z"/></g>
<g><path style="opacity:1" fill="#fcfcfc" d="M 518.5,424.5 C 535.991,426.513 547.825,435.846 554,452.5C 563.482,496.06 570.149,540.06 574,584.5C 574.465,588.393 575.631,592.06 577.5,595.5C 573.979,600.694 569.312,604.361 563.5,606.5C 561.971,606.471 560.804,605.804 560,604.5C 550.401,588.965 537.568,585.465 521.5,594C 513.033,603.431 507.033,614.265 503.5,626.5C 498.572,631.31 492.905,632.477 486.5,630C 485.978,629.439 485.645,628.772 485.5,628C 491.229,611.672 493.562,594.839 492.5,577.5C 491.272,545.776 489.439,514.11 487,482.5C 491.825,464.339 499.158,447.339 509,431.5C 512.068,428.917 515.235,426.584 518.5,424.5 Z M 523.5,488.5 C 521.782,498.42 521.282,508.42 522,518.5C 524.155,519.683 526.155,519.35 528,517.5C 528.224,507.472 526.724,497.805 523.5,488.5 Z"/></g>
<g><path style="opacity:1" fill="#f6f6f6" d="M 245.5,427.5 C 247.527,427.338 249.527,427.505 251.5,428C 253.001,429.252 254.668,430.252 256.5,431C 251.228,436.385 245.228,437.885 238.5,435.5C 240.169,432.17 242.502,429.503 245.5,427.5 Z"/></g>
<g><path style="opacity:1" fill="#f6f6f6" d="M 269.5,432.5 C 274.162,431.804 278.329,432.804 282,435.5C 282.667,436.5 282.667,437.5 282,438.5C 277.929,439.748 273.762,440.248 269.5,440C 268.864,437.606 268.864,435.106 269.5,432.5 Z"/></g>
<g><path style="opacity:1" fill="#f0f0f0" d="M 686.5,432.5 C 693.425,431.355 697.591,434.022 699,440.5C 698.044,441.894 696.711,442.561 695,442.5C 689.701,441.576 685.201,439.243 681.5,435.5C 683.145,434.304 684.811,433.304 686.5,432.5 Z"/></g>
<g><path style="opacity:1" fill="#fcfcfc" d="M 395.5,435.5 C 414.273,432.632 427.107,439.965 434,457.5C 438.085,467.841 440.918,478.508 442.5,489.5C 435.421,522.783 432.254,556.449 433,590.5C 431.188,599.268 428.188,607.602 424,615.5C 417.555,621.202 410.055,623.036 401.5,621C 388.466,617.298 379.132,609.298 373.5,597C 376.405,590.475 377.238,583.641 376,576.5C 369.856,551.539 366.856,526.206 367,500.5C 369.614,483.806 373.614,467.473 379,451.5C 382.438,443.893 387.938,438.56 395.5,435.5 Z M 405.5,481.5 C 403.096,498.138 402.93,514.804 405,531.5C 409.422,514.734 409.589,498.067 405.5,481.5 Z"/></g>
<g><path style="opacity:1" fill="#efefef" d="M 661.5,436.5 C 667.896,436.101 670.229,438.935 668.5,445C 664.26,445.116 660.093,444.616 656,443.5C 656.101,439.89 657.935,437.556 661.5,436.5 Z"/></g>
<g><path style="opacity:1" fill="#f4f4f4" d="M 251.5,446.5 C 255.594,445.705 258.761,447.038 261,450.5C 260.103,453.716 259.269,457.049 258.5,460.5C 253.113,460.595 247.78,460.095 242.5,459C 238.894,457.924 237.894,455.757 239.5,452.5C 242.916,449.151 246.916,447.151 251.5,446.5 Z"/></g>
<g><path style="opacity:1" fill="#060607" d="M 191.5,448.5 C 200.913,446.912 205.247,450.912 204.5,460.5C 204.333,462.167 204.167,463.833 204,465.5C 203.25,466.126 202.416,466.626 201.5,467C 196.914,467.197 192.414,467.697 188,468.5C 187.104,471.025 187.604,473.192 189.5,475C 193.029,475.622 196.529,475.455 200,474.5C 201.711,474.439 203.044,475.106 204,476.5C 205.86,490.32 200.36,494.82 187.5,490C 180.333,484.58 172.667,479.913 164.5,476C 159.167,471.667 159.167,467.333 164.5,463C 173.479,457.789 182.479,452.955 191.5,448.5 Z"/></g>
<g><path style="opacity:1" fill="#eeeeee" d="M 268.5,450.5 C 272.182,450.335 275.848,450.501 279.5,451C 281.618,451.26 283.284,452.26 284.5,454C 283.833,454.667 283.167,455.333 282.5,456C 277.19,457.236 271.857,457.902 266.5,458C 267.867,455.699 268.534,453.199 268.5,450.5 Z"/></g>
<g><path style="opacity:1" fill="#f5f5f5" d="M 679.5,451.5 C 685.533,450.965 691.199,452.132 696.5,455C 701.227,460.357 699.894,463.357 692.5,464C 688.187,464.735 683.853,465.235 679.5,465.5C 679.371,462.234 678.371,459.234 676.5,456.5C 677.26,454.64 678.26,452.973 679.5,451.5 Z"/></g>
<g><path style="opacity:1" fill="#070708" d="M 738.5,452.5 C 743.08,452.113 747.414,452.947 751.5,455C 757.913,459.068 764.579,462.735 771.5,466C 774.237,467.614 776.403,469.781 778,472.5C 778.52,474.289 778.187,475.956 777,477.5C 768.415,482.875 759.915,488.375 751.5,494C 736.574,499.756 730.74,494.59 734,478.5C 739.427,477.94 744.927,477.773 750.5,478C 755.833,475.333 755.833,472.667 750.5,470C 746.508,469.285 742.675,469.785 739,471.5C 737.105,471.385 735.438,470.718 734,469.5C 732.957,463.019 734.457,457.352 738.5,452.5 Z"/></g>
<g><path style="opacity:1" fill="#ececec" d="M 657.5,455.5 C 661.5,455.5 665.5,455.5 669.5,455.5C 669.387,458.049 670.054,460.382 671.5,462.5C 666.168,463.007 660.834,462.507 655.5,461C 654.643,460.311 653.977,459.478 653.5,458.5C 654.901,457.479 656.235,456.479 657.5,455.5 Z"/></g>
<g><path style="opacity:1" fill="#575758" d="M 620.5,464.5 C 620.205,466.735 620.539,468.735 621.5,470.5C 621.44,471.043 621.107,471.376 620.5,471.5C 619.203,469.027 619.203,466.693 620.5,464.5 Z"/></g>
<g><path style="opacity:1" fill="#f5f5f5" d="M 266.5,468.5 C 271.179,468.334 275.845,468.501 280.5,469C 284.13,469.271 285.13,470.938 283.5,474C 278.702,476.273 273.702,477.273 268.5,477C 266.821,474.435 266.154,471.602 266.5,468.5 Z"/></g>
<g><path style="opacity:0.948" fill="#050505" d="M 402.5,468.5 C 405.272,468.22 407.772,468.887 410,470.5C 413.389,476.389 415.389,482.722 416,489.5C 416.891,501.549 416.557,513.549 415,525.5C 413.781,531.041 411.948,536.374 409.5,541.5C 405.248,545.594 401.748,544.928 399,539.5C 397.268,534.65 396.268,529.65 396,524.5C 395.203,510.138 395.536,495.805 397,481.5C 397.783,476.669 399.617,472.335 402.5,468.5 Z M 405.5,481.5 C 403.096,498.138 402.93,514.804 405,531.5C 409.422,514.734 409.589,498.067 405.5,481.5 Z"/></g>
<g><path style="opacity:1" fill="#959595" d="M 665.5,473.5 C 667.693,472.203 670.027,472.203 672.5,473.5C 672.376,474.107 672.043,474.44 671.5,474.5C 669.735,473.539 667.735,473.205 665.5,473.5 Z"/></g>
<g><path style="opacity:1" fill="#f1f1f2" d="M 243.5,472.5 C 248.58,472.25 253.58,472.75 258.5,474C 260.994,477.479 261.827,481.313 261,485.5C 260.275,486.059 259.442,486.392 258.5,486.5C 252.759,485.562 247.092,484.396 241.5,483C 237.285,478.678 237.952,475.178 243.5,472.5 Z"/></g>
<g><path style="opacity:1" fill="#f4f4f4" d="M 665.5,473.5 C 667.735,473.205 669.735,473.539 671.5,474.5C 671.477,476.927 670.977,479.26 670,481.5C 663.824,482.666 658.324,481.166 653.5,477C 653.759,475.739 654.426,474.739 655.5,474C 658.817,473.502 662.15,473.335 665.5,473.5 Z"/></g>
<g><path style="opacity:0.949" fill="#090909" d="M 520.5,473.5 C 524.493,473.245 527.326,474.911 529,478.5C 534.256,491.703 536.589,505.369 536,519.5C 532.628,526.433 527.128,528.933 519.5,527C 517.714,526.215 516.214,525.049 515,523.5C 513.231,519.693 512.398,515.693 512.5,511.5C 513.205,501.445 514.372,491.445 516,481.5C 516.738,478.352 518.238,475.685 520.5,473.5 Z M 523.5,488.5 C 521.782,498.42 521.282,508.42 522,518.5C 524.155,519.683 526.155,519.35 528,517.5C 528.224,507.472 526.724,497.805 523.5,488.5 Z"/></g>
<g><path style="opacity:1" fill="#f6f6f6" d="M 679.5,477.5 C 684.844,477.334 690.177,477.501 695.5,478C 700.395,480.823 700.729,484.157 696.5,488C 690.201,489.33 683.868,489.996 677.5,490C 676.543,485.662 677.21,481.495 679.5,477.5 Z"/></g>
<g><path style="opacity:1" fill="#f5f5f6" d="M 269.5,488.5 C 273.514,488.334 277.514,488.501 281.5,489C 283.797,490.263 284.63,492.097 284,494.5C 280.638,497.015 276.971,499.015 273,500.5C 270.819,498.644 268.985,496.477 267.5,494C 268.861,492.416 269.528,490.582 269.5,488.5 Z"/></g>
<g><path style="opacity:1" fill="#f0f0f0" d="M 657.5,492.5 C 661.106,492.211 664.606,492.544 668,493.5C 668.833,495.167 669.667,496.833 670.5,498.5C 668.588,500.657 666.921,502.991 665.5,505.5C 661.888,504.361 658.554,502.694 655.5,500.5C 654.369,498.926 654.202,497.259 655,495.5C 656.045,494.627 656.878,493.627 657.5,492.5 Z"/></g>
<g><path style="opacity:1" fill="#f2f2f2" d="M 239.5,497.5 C 246.84,497.834 253.173,500.5 258.5,505.5C 249.602,511.854 242.602,510.187 237.5,500.5C 238.193,499.482 238.859,498.482 239.5,497.5 Z"/></g>
<g><path style="opacity:1" fill="#f1f1f2" d="M 691.5,502.5 C 701.722,501.995 703.055,505.161 695.5,512C 689.964,514.024 684.631,513.524 679.5,510.5C 682.875,506.818 686.875,504.152 691.5,502.5 Z"/></g>
<g><path style="opacity:1" fill="#eeeeee" d="M 269.5,512.5 C 272.85,512.335 276.183,512.502 279.5,513C 281.007,513.837 281.507,515.004 281,516.5C 273.392,522.682 265.559,523.015 257.5,517.5C 261.595,515.809 265.595,514.143 269.5,512.5 Z"/></g>
<g><path style="opacity:1" fill="#eeeeee" d="M 658.5,516.5 C 666.062,517.183 673.395,519.016 680.5,522C 672.582,526.797 664.749,526.63 657,521.5C 656.387,519.505 656.887,517.838 658.5,516.5 Z"/></g>
<g><path style="opacity:1" fill="#f5f5f5" d="M 233.5,517.5 C 235.655,517.372 237.655,517.872 239.5,519C 245.518,524.342 252.185,528.675 259.5,532C 249.122,535.21 240.289,532.71 233,524.5C 230.898,521.874 231.065,519.541 233.5,517.5 Z"/></g>
<g><path style="opacity:1" fill="#f3f3f3" d="M 699.5,522.5 C 706.118,521.275 707.951,523.608 705,529.5C 697.189,537.165 688.022,539.665 677.5,537C 685.531,533.12 692.864,528.286 699.5,522.5 Z"/></g>
<g><path style="opacity:1" fill="#f6f6f6" d="M 338.5,593.5 C 334.793,590.028 330.793,589.695 326.5,592.5C 327.026,579.373 320.692,574.04 307.5,576.5C 308.852,566.684 304.519,562.184 294.5,563C 291.136,564.099 287.97,565.599 285,567.5C 281.743,564.572 277.909,563.738 273.5,565C 267.513,567.163 262.513,570.663 258.5,575.5C 266.063,562.272 277.396,554.605 292.5,552.5C 304.588,553.25 316.421,555.25 328,558.5C 329.19,570.943 332.69,582.609 338.5,593.5 Z"/></g>
<g><path style="opacity:1" fill="#f1f1f1" d="M 293.5,570.5 C 295.527,570.338 297.527,570.505 299.5,571C 300.554,572.388 300.72,573.888 300,575.5C 294.588,579.792 288.755,583.459 282.5,586.5C 282.167,586 281.833,585.5 281.5,585C 283.556,578.454 287.556,573.62 293.5,570.5 Z"/></g>
<g><path style="opacity:1" fill="#f4f4f4" d="M 271.5,573.5 C 272.239,573.369 272.906,573.536 273.5,574C 271.646,576.543 270.479,579.376 270,582.5C 269,588.5 268,594.5 267,600.5C 264.461,604.376 262.128,604.376 260,600.5C 258.374,589.094 262.207,580.094 271.5,573.5 Z"/></g>
<g><path style="opacity:1" fill="#f5f5f5" d="M 636.5,574.5 C 645.735,575.901 651.735,581.067 654.5,590C 647.461,588.225 641.294,584.725 636,579.5C 635.36,577.735 635.527,576.068 636.5,574.5 Z"/></g>
<g><path style="opacity:1" fill="#f6f6f6" d="M 662.5,577.5 C 674.167,584.321 678.167,594.154 674.5,607C 672.299,607.825 670.466,607.325 669,605.5C 668.005,595.847 665.839,586.513 662.5,577.5 Z"/></g>
<g><path style="opacity:1" fill="#cfcfd0" d="M 258.5,575.5 C 257.342,578.483 255.675,581.15 253.5,583.5C 253.532,580.148 255.199,577.481 258.5,575.5 Z"/></g>
<g><path style="opacity:1" fill="#f1f1f1" d="M 312.5,583.5 C 318.527,584.004 320.027,587.004 317,592.5C 313.997,596.912 310.163,598.078 305.5,596C 304.39,593.263 304.223,590.429 305,587.5C 307.514,585.996 310.014,584.662 312.5,583.5 Z"/></g>
<g><path style="opacity:1" fill="#cdcdce" d="M 674.5,576.5 C 677.934,579.31 680.934,582.643 683.5,586.5C 682.5,587.833 681.5,587.833 680.5,586.5C 678.843,582.87 676.843,579.536 674.5,576.5 Z"/></g>
<g><path style="opacity:1" fill="#f6f6f6" d="M 618.5,588.5 C 622.736,588.559 626.736,589.559 630.5,591.5C 630.876,594.373 630.876,597.373 630.5,600.5C 623.576,601.796 618.909,598.963 616.5,592C 616.978,590.697 617.645,589.531 618.5,588.5 Z"/></g>
<g><path style="opacity:1" fill="#fcfcfc" d="M 249.5,590.5 C 251.287,594.414 252.454,598.747 253,603.5C 256.611,610.773 262.111,612.439 269.5,608.5C 271.107,612.212 273.107,615.712 275.5,619C 279.451,621.101 283.284,620.934 287,618.5C 286.252,632.76 292.752,638.26 306.5,635C 302.178,646.985 306.511,652.985 319.5,653C 317.731,660.436 320.731,664.936 328.5,666.5C 323.363,677.889 327.03,684.889 339.5,687.5C 333.331,688.408 327.831,690.741 323,694.5C 320.756,692.006 318.423,692.006 316,694.5C 316.555,698.183 317.555,701.85 319,705.5C 319.667,707.833 319.667,710.167 319,712.5C 315.837,716.156 313.171,720.156 311,724.5C 308.321,715.823 302.488,710.657 293.5,709C 286.333,702.168 278.333,696.501 269.5,692C 267.833,691.333 266.167,691.333 264.5,692C 260.177,696.002 255.177,698.669 249.5,700C 240.471,704.188 238.638,710.354 244,718.5C 253.467,725.769 260.8,734.769 266,745.5C 273.1,755.138 282.267,757.972 293.5,754C 295.894,752.048 297.394,749.548 298,746.5C 299.938,743.894 302.438,742.061 305.5,741C 308.135,739.039 309.969,736.539 311,733.5C 311.667,737.833 311.667,742.167 311,746.5C 308,749.5 305,752.5 302,755.5C 296.712,767.542 288.545,770.208 277.5,763.5C 270.768,767.96 271.435,771.46 279.5,774C 293.657,777.171 303.49,772.004 309,758.5C 311.479,755.931 314.146,753.598 317,751.5C 318.444,769.777 312.277,784.943 298.5,797C 282.646,809.178 265.98,820.178 248.5,830C 217.757,837.933 188.757,833.6 161.5,817C 141.791,805.292 126.958,789.125 117,768.5C 113.057,759.614 109.39,750.614 106,741.5C 102.404,732.021 101.738,722.354 104,712.5C 106.451,705.596 109.451,698.93 113,692.5C 119.84,681.49 126.174,670.156 132,658.5C 140.692,643.145 153.192,631.978 169.5,625C 184.296,621.446 198.963,617.779 213.5,614C 212.257,615.154 211.257,616.488 210.5,618C 204.201,620.126 197.867,622.126 191.5,624C 187.5,626.667 184.167,630 181.5,634C 178.036,636.047 174.37,637.713 170.5,639C 165.701,643.842 164.201,649.675 166,656.5C 166.487,659.798 167.653,662.798 169.5,665.5C 171.772,664.559 173.772,663.226 175.5,661.5C 172.873,657.149 172.04,652.482 173,647.5C 176.558,644.968 180.391,642.801 184.5,641C 187.833,637.667 191.167,634.333 194.5,631C 198.264,628.85 202.264,627.85 206.5,628C 199.3,635.194 191.466,641.694 183,647.5C 181.088,653.234 181.421,658.9 184,664.5C 190.303,673.14 198.137,679.973 207.5,685C 212.134,688.632 216.467,692.632 220.5,697C 226.118,700.81 230.951,699.977 235,694.5C 236.36,688.78 239.026,683.78 243,679.5C 245.36,672.692 244.36,666.358 240,660.5C 236.667,656.5 233.333,652.5 230,648.5C 227.115,640.553 222.615,633.719 216.5,628C 214.913,627.138 213.246,626.471 211.5,626C 214.797,623.705 217.797,621.038 220.5,618C 222,617.833 223.5,617.667 225,617.5C 230.718,618.956 236.218,620.789 241.5,623C 242.872,621.758 243.872,620.258 244.5,618.5C 243.167,617.167 241.833,615.833 240.5,614.5C 246.234,607.591 249.234,599.591 249.5,590.5 Z"/></g>
<g><path style="opacity:1" fill="#f5f5f5" d="M 289.5,593.5 C 290.507,599.657 289.174,605.49 285.5,611C 283.031,613.022 280.865,612.855 279,610.5C 277.574,605.243 278.741,600.743 282.5,597C 285.281,596.478 287.615,595.311 289.5,593.5 Z"/></g>
<g><path style="opacity:1" fill="#e8e8e9" d="M 240.5,594.5 C 240.628,608.841 233.628,614.008 219.5,610C 227.246,605.742 234.246,600.575 240.5,594.5 Z"/></g>
<g><path style="opacity:1" fill="#f5f5f5" d="M 338.5,593.5 C 346.332,602.166 355.999,605.333 367.5,603C 370.865,609.371 375.365,614.871 381,619.5C 384.256,629.943 385.256,640.609 384,651.5C 377.071,666.43 366.404,677.097 352,683.5C 351.333,682.833 351.333,682.167 352,681.5C 361.005,675.137 367.339,666.804 371,656.5C 379.583,650.095 381.583,642.095 377,632.5C 373.579,629.464 369.746,628.797 365.5,630.5C 364.833,628.5 364.167,626.5 363.5,624.5C 361.82,619.304 358.154,616.471 352.5,616C 353.457,607.459 349.457,603.626 340.5,604.5C 340.887,600.556 340.22,596.889 338.5,593.5 Z"/></g>
<g><path style="opacity:1" fill="#fdfdfd" d="M 684.5,595.5 C 685.586,595.62 686.253,596.287 686.5,597.5C 687.073,605.73 690.073,612.897 695.5,619C 693.833,620.167 692.167,621.333 690.5,622.5C 692.192,624.359 693.692,626.359 695,628.5C 700.633,623.594 707.133,621.427 714.5,622C 717.368,625.366 720.701,628.2 724.5,630.5C 719.726,631.768 715.893,634.434 713,638.5C 709.754,647.329 704.754,654.995 698,661.5C 695.746,665.007 693.746,668.673 692,672.5C 690.526,678.336 691.86,683.336 696,687.5C 697.407,692.397 699.573,696.897 702.5,701C 706.762,704.243 711.096,704.243 715.5,701C 722.968,693.193 731.301,686.527 740.5,681C 745.805,676.701 749.972,671.534 753,665.5C 756.566,656.137 753.732,649.637 744.5,646C 740.134,641.299 735.467,636.966 730.5,633C 734.739,632.771 738.739,633.771 742.5,636C 747.12,643.39 753.62,648.224 762,650.5C 762.985,655.689 762.485,660.689 760.5,665.5C 762.146,668.499 764.479,669.499 767.5,668.5C 770.045,662.385 770.878,656.052 770,649.5C 766.857,644.503 762.357,641.336 756.5,640C 752.833,636.333 749.167,632.667 745.5,629C 739.176,626.894 732.843,624.894 726.5,623C 724.833,621.333 723.167,619.667 721.5,618C 733.52,621.816 745.854,624.816 758.5,627C 778.036,632.547 792.869,644.047 803,661.5C 808.826,673.156 815.16,684.49 822,695.5C 825.881,702.595 829.215,709.929 832,717.5C 833.093,726.658 832.426,735.658 830,744.5C 811.938,803.862 771.938,835.195 710,838.5C 697.879,838.794 686.712,835.627 676.5,829C 664.5,820.667 652.5,812.333 640.5,804C 624.764,792.029 617.597,776.196 619,756.5C 621.963,758.461 624.629,760.794 627,763.5C 634.023,778.761 645.189,782.928 660.5,776C 664.547,772.288 663.714,769.788 658,768.5C 651.946,773.594 645.779,773.761 639.5,769C 636.627,765.423 634.127,761.589 632,757.5C 629.961,755.126 627.628,753.126 625,751.5C 624.333,747.167 624.333,742.833 625,738.5C 626.474,742.641 629.307,745.474 633.5,747C 636.835,751.045 640.168,755.045 643.5,759C 654.218,761.425 663.051,758.259 670,749.5C 675.2,738.769 682.533,729.769 692,722.5C 695.716,716.859 695.216,711.692 690.5,707C 686.581,705.138 682.581,703.471 678.5,702C 675.045,696.982 670.378,695.316 664.5,697C 657.118,701.027 650.451,706.027 644.5,712C 638.093,713.682 632.593,716.849 628,721.5C 626.725,723.717 625.725,726.051 625,728.5C 622.72,724.553 620.053,720.887 617,717.5C 616.278,711.322 617.444,705.488 620.5,700C 618.933,698.19 616.933,697.023 614.5,696.5C 613.833,697.167 613.167,697.833 612.5,698.5C 607.208,695.456 601.541,693.29 595.5,692C 598.786,690.672 602.119,689.339 605.5,688C 611.183,683.092 611.849,677.592 607.5,671.5C 610.596,669.869 613.43,667.869 616,665.5C 617.686,662.912 617.853,660.245 616.5,657.5C 629.268,657.249 633.601,651.249 629.5,639.5C 642.608,642.893 649.275,637.56 649.5,623.5C 659.089,626.266 664.422,622.599 665.5,612.5C 670.09,614.918 674.756,615.084 679.5,613C 682.913,607.732 684.579,601.899 684.5,595.5 Z"/></g>
<g><path style="opacity:1" fill="#f3f3f3" d="M 329.5,598.5 C 330.833,598.5 332.167,598.5 333.5,598.5C 333.628,600.655 333.128,602.655 332,604.5C 328.623,607.708 325.456,611.042 322.5,614.5C 320.478,612.469 318.811,610.135 317.5,607.5C 318.305,605.528 319.639,604.028 321.5,603C 324.391,601.726 327.058,600.226 329.5,598.5 Z"/></g>
<g><path style="opacity:1" fill="#f5f5f5" d="M 674.5,576.5 C 668.432,571.311 661.432,568.811 653.5,569C 652.646,570.022 651.646,570.855 650.5,571.5C 645.246,568.269 639.579,567.103 633.5,568C 628.319,571.197 626.652,575.697 628.5,581.5C 628.167,581.833 627.833,582.167 627.5,582.5C 614.852,578.319 609.186,582.819 610.5,596C 608.095,596.148 605.761,595.648 603.5,594.5C 596.318,596.483 593.651,600.983 595.5,608C 586.206,607.794 581.872,612.294 582.5,621.5C 577.579,621.043 574.079,623.043 572,627.5C 571.667,630.167 571.333,632.833 571,635.5C 561.3,631.837 556.467,635.337 556.5,646C 557.076,652.312 559.909,657.479 565,661.5C 569.013,671.691 575.513,680.024 584.5,686.5C 584.167,687.5 583.5,688.167 582.5,688.5C 573.303,682.811 565.136,675.811 558,667.5C 550.472,657.595 548.472,646.595 552,634.5C 553.667,627.833 555.333,621.167 557,614.5C 560.362,614.417 563.862,614.25 567.5,614C 573.703,610.803 579.036,606.47 583.5,601C 589.694,601.234 595.027,599.234 599.5,595C 610.693,583.814 620.359,571.48 628.5,558C 648.34,553.433 663.673,559.599 674.5,576.5 Z"/></g>
<g><path style="opacity:1" fill="#f3f3f3" d="M 645.5,598.5 C 656.115,600.723 659.781,607.056 656.5,617.5C 653.215,617.731 650.715,616.397 649,613.5C 646.49,608.805 645.323,603.805 645.5,598.5 Z"/></g>
<g><path style="opacity:1" fill="#f2f2f2" d="M 693.5,599.5 C 693.897,598.475 694.563,598.308 695.5,599C 701.259,604.762 707.592,609.762 714.5,614C 707.265,617.263 701.432,615.763 697,609.5C 696.122,605.948 694.956,602.614 693.5,599.5 Z"/></g>
<g><path style="opacity:1" fill="#f1f1f1" d="M 602.5,602.5 C 608.276,603.972 613.443,606.638 618,610.5C 617.828,613.351 616.661,615.851 614.5,618C 613.5,618.667 612.5,618.667 611.5,618C 608.667,614.5 605.833,611 603,607.5C 602.506,605.866 602.34,604.199 602.5,602.5 Z"/></g>
<g><path style="opacity:1" fill="#f6f6f6" d="M 304.5,606.5 C 305.873,606.343 307.207,606.51 308.5,607C 310.545,609.586 312.211,612.42 313.5,615.5C 310.691,619.477 307.691,623.31 304.5,627C 297.861,630.371 294.694,628.537 295,621.5C 298.188,616.444 301.355,611.444 304.5,606.5 Z"/></g>
<g><path style="opacity:1" fill="#f6f6f6" d="M 626.5,611.5 C 628.199,611.34 629.866,611.506 631.5,612C 634.667,616.5 637.833,621 641,625.5C 641.812,632.001 638.979,634.168 632.5,632C 628.964,628.799 625.797,625.299 623,621.5C 623.274,617.932 624.44,614.599 626.5,611.5 Z"/></g>
<g><path style="opacity:1" fill="#ebebeb" d="M 342.5,611.5 C 343.5,611.5 344.5,611.5 345.5,611.5C 344.974,617.704 341.974,622.371 336.5,625.5C 334.446,623.541 332.113,622.041 329.5,621C 334.015,617.97 338.349,614.803 342.5,611.5 Z"/></g>
<g><path style="opacity:1" fill="#f3f3f3" d="M 589.5,616.5 C 591.199,616.34 592.866,616.506 594.5,617C 598.205,619.845 601.872,622.678 605.5,625.5C 603.417,626.959 601.25,628.292 599,629.5C 594.43,626.111 591.264,621.777 589.5,616.5 Z"/></g>
<g><path style="opacity:1" fill="#f3f3f3" d="M 352.5,624.5 C 355.243,624.077 356.576,625.244 356.5,628C 355.743,635.202 352.077,637.536 345.5,635C 344.253,633.506 344.253,632.006 345.5,630.5C 348.464,629.192 350.797,627.192 352.5,624.5 Z"/></g>
<g><path style="opacity:1" fill="#f7f7f7" d="M 321.5,625.5 C 334.08,629.825 334.746,635.658 323.5,643C 319.928,644.405 316.261,644.738 312.5,644C 311.446,642.612 311.28,641.112 312,639.5C 314.929,634.631 318.096,629.965 321.5,625.5 Z"/></g>
<g><path style="opacity:1" fill="#707070" d="M 363.5,624.5 C 364.167,626.5 364.833,628.5 365.5,630.5C 365.44,631.043 365.107,631.376 364.5,631.5C 363.526,629.257 363.192,626.924 363.5,624.5 Z"/></g>
<g><path style="opacity:1" fill="#f7f7f7" d="M 439.5,625.5 C 440.496,625.414 441.329,625.748 442,626.5C 451.566,642.978 464.399,645.978 480.5,635.5C 486.164,638.387 492.164,639.221 498.5,638C 502.048,637.559 505.048,636.059 507.5,633.5C 518.571,639.274 528.404,646.607 537,655.5C 538.725,658.674 540.058,662.007 541,665.5C 541.831,677.566 541.331,689.566 539.5,701.5C 538.5,701.5 537.5,701.5 536.5,701.5C 536.666,694.492 536.5,687.492 536,680.5C 535.424,676.512 534.091,672.845 532,669.5C 533.979,655.515 528.146,648.348 514.5,648C 511.93,650.067 509.93,652.567 508.5,655.5C 503.348,648.501 497.515,647.834 491,653.5C 485.205,646.867 479.372,646.867 473.5,653.5C 469.743,647.859 464.743,646.359 458.5,649C 456.787,650.925 455.453,653.092 454.5,655.5C 445.951,645.625 438.285,646.292 431.5,657.5C 424.225,649.183 417.391,649.517 411,658.5C 409.659,661.022 408.826,663.689 408.5,666.5C 406.345,666.372 404.345,666.872 402.5,668C 395.213,676.964 393.546,686.964 397.5,698C 397.07,699.434 396.236,700.601 395,701.5C 393.008,690.235 392.341,678.901 393,667.5C 394.196,662.777 396.196,658.443 399,654.5C 411.246,642.972 424.746,633.305 439.5,625.5 Z"/></g>
<g><path style="opacity:1" fill="#f5f5f5" d="M 580.5,628.5 C 583.947,630.397 587.28,632.563 590.5,635C 591.517,636.049 591.684,637.216 591,638.5C 588.771,639.57 586.605,640.403 584.5,641C 579.839,637.819 578.506,633.653 580.5,628.5 Z"/></g>
<g><path style="opacity:1" fill="#f5f5f5" d="M 612.5,630.5 C 618.093,634.28 622.093,639.446 624.5,646C 624.241,647.261 623.574,648.261 622.5,649C 615.517,649.388 609.684,646.888 605,641.5C 604.333,639.167 604.333,636.833 605,634.5C 607.633,633.248 610.133,631.914 612.5,630.5 Z"/></g>
<g><path style="opacity:1" fill="#efefef" d="M 368.5,636.5 C 371.286,636.956 372.619,638.623 372.5,641.5C 372.378,643.791 371.545,645.791 370,647.5C 364.618,651.024 358.952,654.024 353,656.5C 356.446,648.662 361.613,641.995 368.5,636.5 Z"/></g>
<g><path style="opacity:1" fill="#f3f3f3" d="M 564.5,641.5 C 567.016,641.755 569.35,642.589 571.5,644C 575.5,649.333 579.5,654.667 583.5,660C 582.167,660.667 580.833,660.667 579.5,660C 576.446,657.806 573.112,656.139 569.5,655C 564.255,651.699 562.588,647.199 564.5,641.5 Z"/></g>
<g><path style="opacity:1" fill="#060608" d="M 257.5,645.5 C 266.612,644.803 272.112,648.803 274,657.5C 271.297,660.538 268.297,663.205 265,665.5C 263.67,670.498 265.504,672.664 270.5,672C 272.136,668.731 274.469,666.064 277.5,664C 282.938,663.067 286.772,665.234 289,670.5C 289.667,672.5 289.667,674.5 289,676.5C 284.498,681.337 278.998,684.503 272.5,686C 267.053,686.928 261.72,688.261 256.5,690C 248.242,692.718 244.409,689.885 245,681.5C 247.745,672.6 250.078,663.6 252,654.5C 253.343,651.138 255.176,648.138 257.5,645.5 Z"/></g>
<g><path style="opacity:1" fill="#f0f0f0" d="M 338.5,647.5 C 339.978,647.238 341.311,647.571 342.5,648.5C 340.536,657.119 335.202,660.453 326.5,658.5C 326.104,655.956 326.771,653.789 328.5,652C 331.893,650.38 335.226,648.88 338.5,647.5 Z"/></g>
<g><path style="opacity:1" fill="#080809" d="M 670.5,649.5 C 677.601,649.077 682.101,652.411 684,659.5C 686.374,668.955 688.541,678.455 690.5,688C 690.092,694.221 686.758,696.554 680.5,695C 673.269,692.589 665.936,690.589 658.5,689C 644.065,683.623 642.732,675.956 654.5,666C 655.5,665.333 656.5,665.333 657.5,666C 659.5,669.333 662.167,672 665.5,674C 670.524,675.099 672.191,673.265 670.5,668.5C 666.967,665.801 663.967,662.634 661.5,659C 664.016,655.318 667.016,652.152 670.5,649.5 Z"/></g>
<g><path style="opacity:1" fill="#f2f2f2" d="M 592.5,653.5 C 598.648,652.377 604.148,654.044 609,658.5C 609.49,659.793 609.657,661.127 609.5,662.5C 605.741,663.908 602.075,663.742 598.5,662C 596.405,659.16 594.405,656.327 592.5,653.5 Z"/></g>
<g><path style="opacity:1" fill="#eeeeee" d="M 462.5,655.5 C 464.451,655.227 465.951,655.893 467,657.5C 467.684,662.822 468.184,668.156 468.5,673.5C 465.07,673.893 461.904,673.227 459,671.5C 458.333,669.5 458.333,667.5 459,665.5C 460.46,662.252 461.626,658.919 462.5,655.5 Z"/></g>
<g><path style="opacity:1" fill="#f2f2f2" d="M 516.5,655.5 C 521.968,655.97 524.635,658.97 524.5,664.5C 524.333,666.167 524.167,667.833 524,669.5C 522.466,673.63 520.633,677.63 518.5,681.5C 515.852,672.949 515.185,664.282 516.5,655.5 Z"/></g>
<g><path style="opacity:1" fill="#f0f0f0" d="M 441.5,655.5 C 446.914,655.961 449.247,658.961 448.5,664.5C 448.333,666.167 448.167,667.833 448,669.5C 446.013,670.218 444.179,671.218 442.5,672.5C 439.938,670.92 437.938,668.92 436.5,666.5C 437.904,662.693 439.571,659.027 441.5,655.5 Z"/></g>
<g><path style="opacity:1" fill="#eeeeee" d="M 481.5,655.5 C 483.411,655.574 484.578,656.574 485,658.5C 485.499,662.821 485.666,667.154 485.5,671.5C 482.801,671.466 480.301,672.133 478,673.5C 478.392,668.186 479.059,662.853 480,657.5C 480.717,656.956 481.217,656.289 481.5,655.5 Z"/></g>
<g><path style="opacity:1" fill="#ebebeb" d="M 497.5,657.5 C 503.88,659.429 505.88,663.596 503.5,670C 500.943,671.119 498.443,671.285 496,670.5C 495.799,666.077 496.299,661.744 497.5,657.5 Z"/></g>
<g><path style="opacity:1" fill="#f3f3f3" d="M 419.5,658.5 C 423.305,658.643 424.971,660.643 424.5,664.5C 423.29,670.669 421.457,676.669 419,682.5C 414.182,674.369 414.348,666.369 419.5,658.5 Z"/></g>
<g><path style="opacity:1" fill="#f0f0f0" d="M 358.5,661.5 C 360.028,661.517 360.528,662.184 360,663.5C 355.135,668.7 349.968,673.533 344.5,678C 340.001,680.367 336.168,679.533 333,675.5C 333.222,673.544 334.055,671.71 335.5,670C 339.887,667.736 344.554,666.403 349.5,666C 352.859,664.953 355.859,663.453 358.5,661.5 Z"/></g>
<g><path style="opacity:1" fill="#f3f3f3" d="M 575.5,665.5 C 576.683,666.504 578.016,667.338 579.5,668C 586.153,670.183 592.82,672.183 599.5,674C 604.174,679.418 602.84,682.585 595.5,683.5C 586.639,679.974 579.972,673.974 575.5,665.5 Z"/></g>
<g><path style="opacity:1" fill="#f8f8f8" d="M 451.5,678.5 C 455.58,678.583 459.413,679.583 463,681.5C 463.667,686.833 463.667,692.167 463,697.5C 459.76,702.701 456.426,702.701 453,697.5C 452.329,692.307 451.496,687.14 450.5,682C 450.648,680.744 450.982,679.577 451.5,678.5 Z"/></g>
<g><path style="opacity:1" fill="#f4f4f4" d="M 483.5,678.5 C 487.629,678.965 489.629,681.299 489.5,685.5C 489.28,690.106 488.113,694.439 486,698.5C 484.214,701.362 481.881,702.028 479,700.5C 476.52,694.313 475.687,687.98 476.5,681.5C 479.127,680.942 481.46,679.942 483.5,678.5 Z"/></g>
<g><path style="opacity:1" fill="#f1f1f1" d="M 403.5,680.5 C 408.415,687.931 413.581,695.264 419,702.5C 419.696,706.968 417.863,708.802 413.5,708C 404.719,700.826 401.386,691.659 403.5,680.5 Z"/></g>
<g><path style="opacity:1" fill="#f0f0f0" d="M 527.5,680.5 C 528.222,680.918 528.722,681.584 529,682.5C 529.667,688.833 529.667,695.167 529,701.5C 527.385,706.799 523.885,709.299 518.5,709C 516.522,706.503 516.022,703.669 517,700.5C 521.815,694.537 525.315,687.871 527.5,680.5 Z"/></g>
<g><path style="opacity:1" fill="#f1f1f1" d="M 430.5,681.5 C 435.759,686.352 438.592,692.352 439,699.5C 438.653,701.18 437.653,702.18 436,702.5C 429.708,699.917 427.041,695.25 428,688.5C 429.411,686.35 430.245,684.016 430.5,681.5 Z"/></g>
<g><path style="opacity:1" fill="#ebebec" d="M 505.5,682.5 C 511.633,690.309 510.3,696.642 501.5,701.5C 499.745,700.33 498.745,698.663 498.5,696.5C 500.084,691.388 502.417,686.721 505.5,682.5 Z"/></g>
<g><path style="opacity:1" fill="#e4e4e4" d="M 336.5,695.5 C 337.376,695.369 338.043,695.702 338.5,696.5C 334.51,700.659 330.676,704.993 327,709.5C 325.663,701.684 328.83,697.017 336.5,695.5 Z"/></g>
<g><path style="opacity:1" fill="#fcfcfc" d="M 541.5,810.5 C 540.527,812.948 540.194,815.615 540.5,818.5C 542.735,818.795 544.735,818.461 546.5,817.5C 557.325,814.499 562.658,807.332 562.5,796C 561.684,790.861 561.017,785.694 560.5,780.5C 560.833,778.167 561.167,775.833 561.5,773.5C 570.188,781.539 576.355,791.205 580,802.5C 580.667,810.833 580.667,819.167 580,827.5C 577.439,844.778 573.773,861.778 569,878.5C 563.036,891.132 554.203,901.299 542.5,909C 505.463,934.255 465.796,939.255 423.5,924C 408.647,919.33 395.813,911.497 385,900.5C 382.412,896.326 380.079,891.993 378,887.5C 373.252,870.424 368.252,853.424 363,836.5C 358.265,818.803 359.932,801.803 368,785.5C 375.42,774.999 382.087,763.999 388,752.5C 392.492,740.582 394.992,728.249 395.5,715.5C 401.095,720.684 403.262,727.018 402,734.5C 392.854,740.233 388.854,748.566 390,759.5C 382.176,768.677 379.176,779.344 381,791.5C 376.839,796.622 376.506,801.955 380,807.5C 383.251,811.422 387.084,814.588 391.5,817C 393.112,817.72 394.612,817.554 396,816.5C 396.813,814.564 397.313,812.564 397.5,810.5C 391.745,809.466 387.745,806.3 385.5,801C 386.662,797.513 387.829,794.013 389,790.5C 386.624,781.078 388.624,772.745 395,765.5C 394.718,775.863 394.051,786.196 393,796.5C 400.063,807.067 409.897,810.567 422.5,807C 432.738,805.092 443.072,804.092 453.5,804C 461.867,802.113 464.7,796.946 462,788.5C 458.553,783.714 456.553,778.381 456,772.5C 451.447,767.972 445.947,765.139 439.5,764C 431.017,764.493 423.017,762.827 415.5,759C 410.5,758.333 405.5,758.333 400.5,759C 399.576,760.489 398.576,760.656 397.5,759.5C 398.065,754.771 398.898,750.105 400,745.5C 404.692,741.323 410.192,738.99 416.5,738.5C 416.663,736.143 416.497,733.81 416,731.5C 414.119,730.646 412.286,730.979 410.5,732.5C 409.417,723.168 405.75,715.001 399.5,708C 399.833,707.833 400.167,707.667 400.5,707.5C 404.827,711.915 409.994,714.915 416,716.5C 422.095,715.345 425.761,711.679 427,705.5C 435.123,711.95 441.456,710.617 446,701.5C 449.92,707.711 455.42,709.877 462.5,708C 466.034,705.967 468.7,703.134 470.5,699.5C 473.134,707.318 478.468,710.151 486.5,708C 488.611,706.265 490.611,704.432 492.5,702.5C 496.633,709.237 501.967,710.237 508.5,705.5C 510.062,714.78 515.396,718.28 524.5,716C 527.306,714.911 529.973,713.911 532.5,713C 528.227,718.104 525.561,723.937 524.5,730.5C 523.833,730.167 523.167,729.833 522.5,729.5C 521.123,731.289 520.123,733.289 519.5,735.5C 525.399,737.699 530.565,741.033 535,745.5C 535.049,750.022 535.882,754.356 537.5,758.5C 537.167,758.833 536.833,759.167 536.5,759.5C 532.149,756.873 527.482,756.04 522.5,757C 519.326,758.725 515.993,760.058 512.5,761C 502.367,760.952 492.7,762.952 483.5,767C 480.965,770.693 479.798,774.859 480,779.5C 477.661,783.18 476.161,787.18 475.5,791.5C 475.481,796.643 477.814,800.143 482.5,802C 486.828,802.265 491.162,802.098 495.5,801.5C 503.195,801.444 510.528,802.944 517.5,806C 525.373,807.499 532.706,806.166 539.5,802C 545.939,796.28 547.273,789.447 543.5,781.5C 544.271,778.355 544.937,775.188 545.5,772C 545.315,769.598 544.815,767.431 544,765.5C 547,768.5 550,771.5 553,774.5C 552.566,778.452 552.566,782.452 553,786.5C 556.543,793.363 556.21,800.029 552,806.5C 549.005,809.11 545.505,810.443 541.5,810.5 Z"/></g>
<g><path style="opacity:1" fill="#e5e5e5" d="M 597.5,701.5 C 603.197,700.377 607.031,702.711 609,708.5C 609.808,710.579 609.641,712.579 608.5,714.5C 605.915,709.249 602.248,704.915 597.5,701.5 Z"/></g>
<g><path style="opacity:1" fill="#f0f0f0" d="M 536.5,719.5 C 537.167,723.833 537.833,728.167 538.5,732.5C 538.92,734.674 538.92,736.674 538.5,738.5C 535.478,735.792 533.478,732.459 532.5,728.5C 533.585,725.335 534.918,722.335 536.5,719.5 Z"/></g>
<g><path style="opacity:1" fill="#f0f0f0" d="M 320.5,722.5 C 321.043,722.56 321.376,722.893 321.5,723.5C 320.355,726.748 319.521,730.081 319,733.5C 318.112,729.598 318.612,725.931 320.5,722.5 Z"/></g>
<g><path style="opacity:1" fill="#3e3e3f" d="M 536.5,719.5 C 536.56,718.957 536.893,718.624 537.5,718.5C 538.493,723.12 538.827,727.786 538.5,732.5C 537.833,728.167 537.167,723.833 536.5,719.5 Z"/></g>
<g><path style="opacity:1" fill="#d5d5d5" d="M 613.5,727.5 C 613.56,726.957 613.893,726.624 614.5,726.5C 615.333,727.5 616.167,728.5 617,729.5C 617.667,733.167 617.667,736.833 617,740.5C 616.462,735.853 615.295,731.52 613.5,727.5 Z"/></g>
<g><path style="opacity:1" fill="#060607" d="M 449.5,735.5 C 453.514,735.334 457.514,735.501 461.5,736C 462.701,736.903 463.535,738.069 464,739.5C 464.333,743.5 464.667,747.5 465,751.5C 467.333,754.167 469.667,754.167 472,751.5C 472.445,748.322 472.278,745.155 471.5,742C 471.354,739.966 472.02,738.299 473.5,737C 487.444,734.952 491.611,740.452 486,753.5C 481.21,762.25 476.043,770.75 470.5,779C 467.331,779.978 464.497,779.478 462,777.5C 456.919,768.335 451.585,759.335 446,750.5C 443.171,744.376 444.338,739.376 449.5,735.5 Z"/></g>
<g><path style="opacity:1" fill="#e4e4e4" d="M 543.5,750.5 C 546.71,754.178 549.21,758.178 551,762.5C 548.667,760.167 546.333,757.833 544,755.5C 543.506,753.866 543.34,752.199 543.5,750.5 Z"/></g>
<g><path style="opacity:1" fill="#79797a" d="M 541.5,810.5 C 541.5,812.833 541.5,815.167 541.5,817.5C 543.167,817.5 544.833,817.5 546.5,817.5C 544.735,818.461 542.735,818.795 540.5,818.5C 540.194,815.615 540.527,812.948 541.5,810.5 Z"/></g>
</svg>
